<svg width="512" height="512" id="hexatar-preview" version="1.1" xmlns="http://www.w3.org/2000/svg" xmlns:xlink="http://www.w3.org/1999/xlink" x="0px" y="0px" viewBox="0 0 512 512" style="enable-background:new 0 0 512 512;" xml:space="preserve">
    <g id="hexatar-background"><g class="hexatar-base">
		<rect class="col-obj" x="-0.004" y="0.003" style="fill: transparent;" width="512" height="512"></rect>
	</g></g>
	<g id="hexatar-hair-rear"><g class="element-rear">
			<path class="col-obj" style="fill: rgb(178, 156, 142);" d="M426.28,243.832c11.657-23.834-9.159-54.719-21.442-68.782 c-19.109-21.878-94.839-47.049-149.295-47.049c-54.456,0-118.814,19.999-151.867,53.943c-9.523,9.78-29.149,43.269-11.516,67.505 c13.065,17.957,19.666,27.007,20.789,49.186c1.033,20.408-29.608,39.367-22.691,58.595c3.668,10.196,14.099,16.461,24.523,19.422 c10.423,2.961,21.434,3.455,31.821,6.541c10.387,3.086,20.705,9.644,24.003,19.966c3.298,10.322-3.7,24.545-14.521,23.966 c33.971,7.93,71.695-0.374,98.889-22.092c27.194,21.718,64.918,30.022,98.889,22.092c-10.82,0.58-17.818-13.644-14.521-23.966 c3.297-10.322,13.616-16.879,24.003-19.966c10.387-3.086,21.398-3.58,31.821-6.541c10.423-2.961,20.855-9.226,24.523-19.422 c6.917-19.228-19.309-40.622-18.277-61.03C402.533,274.02,416.522,263.781,426.28,243.832z"></path>
		<path class="shadow-obj" style="opacity: 0.4; fill: rgb(157, 129, 112);" d="M426.28,243.832c11.657-23.834-8.881-54.967-21.442-68.782 c-20.26-22.282-93.742-47.073-148.109-47.05v278.391c27.047,20.696,63.884,28.494,97.132,20.732 c-10.82,0.58-17.818-13.644-14.521-23.966c3.297-10.322,13.616-16.879,24.003-19.966c10.387-3.086,21.398-3.58,31.821-6.541 c10.423-2.961,20.855-9.226,24.523-19.422c6.917-19.228-19.309-40.622-18.277-61.03 C402.533,274.02,416.522,263.781,426.28,243.832z"></path>
		<g class="hair-ext" style="display: block;">
				<path class="col-obj" style="fill: rgb(178, 156, 142);" d="M442.99,243.267c6.136-12.194,6.503-26.677,3.486-39.989 c-3.017-13.313-9.189-25.681-15.72-37.668c-20.363-37.373-42.722-74.477-70.642-106.599c0,0-50.685-58.772-105.141-58.772 c-54.456,0-105.141,58.772-105.141,58.772c-27.92,32.122-50.279,69.226-70.642,106.599 c-6.531,11.987-12.702,24.355-15.72,37.668c-3.017,13.313-2.65,27.796,3.486,39.989c9.982,19.838,34.318,32.91,35.44,55.089 c1.033,20.408-19.054,39.645-12.138,58.873c3.668,10.196,14.099,16.461,24.523,19.422c10.423,2.961,21.434,3.455,31.821,6.541 c10.387,3.086,20.705,9.644,24.003,19.966c3.298,10.322-3.7,24.545-14.521,23.966c33.971,7.93,71.695-0.374,98.889-22.092 c27.194,21.718,64.918,30.022,98.889,22.092c-10.82,0.58-17.818-13.644-14.521-23.966c3.297-10.322,13.616-16.879,24.003-19.966 c10.387-3.086,21.398-3.58,31.821-6.541c10.423-2.961,20.855-9.226,24.523-19.422c6.917-19.228-13.17-38.465-12.138-58.873 C408.672,276.177,433.008,263.104,442.99,243.267z"></path>
			<path class="shadow-obj" style="opacity: 0.4; fill: rgb(157, 129, 112);" d="M442.99,243.267c6.136-12.194,6.503-26.677,3.486-39.989 c-3.017-13.313-9.189-25.681-15.72-37.668c-20.363-37.373-42.722-74.477-70.642-106.599c0,0-50.12-58.106-104.228-58.756v405.483 c27.121,21.184,64.381,29.228,97.976,21.385c-10.82,0.58-17.818-13.644-14.521-23.966c3.297-10.322,13.616-16.879,24.003-19.966 c10.387-3.086,21.398-3.58,31.821-6.541c10.423-2.961,20.855-9.226,24.523-19.422c6.917-19.228-13.17-38.465-12.138-58.873 C408.672,276.177,433.008,263.104,442.99,243.267z"></path>
		</g>
	</g></g>
	<g id="hexatar-bodies">
		<g id="hexatar-body">
			<polygon class="col-obj" style="fill:#FCE2E1;" points="380.515,465 301,451 301,334 211,334 211,451 131.636,465 94.115,512   418.035,512 "></polygon>
			<polygon class="shadow-obj" style="fill: rgb(247, 181, 179);" points="380.541,465 301,451 301,334 256,334 256,512 418.062,512 "></polygon>
			<polygon id="hexatar-neck-control" class="shadow-obj-2x" style="opacity: 0.5; fill: rgb(242, 136, 133);" points="301.054,387.482 255.998,427.693 210.942,384.615  210.942,333.485 301.054,333.485 "></polygon>
		</g>
		<g id="hexatar-clothes"><g class="hexatar-base">
		<path class="white-obj" style="fill:#FFFFFF;" d="M332.872,512.52H173.811v-54.536c0,0,22.143,34.889,79.531,34.889 s79.531-34.889,79.531-34.889V512.52z"></path>
		<path class="col-obj" style="fill: rgb(155, 64, 155);" d="M129.243,464.989l-37.084,47h119.597l-15.006-61.027L129.243,464.989z M382.755,464.989l-67.474-14.027l-15.004,61.027h119.562L382.755,464.989z"></path>
		<path class="shadow-obj" style="opacity: 0.4; fill: rgb(119, 49, 119);" d="M92.159,511.989l48.677,0.006l-11.37-47.006L92.159,511.989z M383.147,464.989l-10.721,47.006l48.028-0.006L383.147,464.989z"></path>
	</g></g>
	</g>
	<g id="hexatar-faces">
		<g id="hexatar-ears"><g class="hexatar-base">
		<g class="hexatar-ears-right"> 	<polygon class="col-obj" style="fill:#FCE2E1;" points="172.062,168.76 172.062,238.392 127.687,238.392 109.255,203.576  127.687,168.76"></polygon> 	<polygon class="shadow-obj" style="fill: rgb(247, 181, 179);" points="137.955,219.998 129.261,203.576 137.955,187.154 172.062,187.154  172.062,219.998"></polygon>
		</g>
		<g class="hexatar-ears-left"> 	<polygon class="shadow-obj" style="fill: rgb(247, 181, 179);" points="340.163,238.392 340.163,168.76 382.976,168.76 401.408,203.576  382.976,238.392"></polygon> 	<polygon class="shadow-obj-2x" style="fill: rgb(242, 136, 133);" points="372.708,187.154 381.402,203.576 372.708,219.998  340.163,219.998 340.163,187.154"></polygon>
		</g>
	</g></g>
		<g id="hexatar-face"><g class="hexatar-base">
		<path class="col-obj" style="fill:#FCE2E1;" d="M255.986,7.171l-102.4,64.185l0,215.354c0,30.805,15.891,59.432,42.035,75.724 l29.615,18.455c18.815,11.725,42.668,11.701,61.46-0.062l29.805-18.657c26.058-16.311,41.883-44.887,41.883-75.629l0-215.185 L255.986,7.171z"></path>
		<path class="shadow-obj" style="fill: rgb(247, 181, 179);" d="M286.696,380.827L286.696,380.827l29.805-18.657 c26.058-16.311,41.883-44.888,41.883-75.629V71.355L255.986,7.171l-0.001,382.495 C266.646,389.653,277.304,386.706,286.696,380.827z"></path>
	</g></g>
		<g id="hexatar-mouth"></g>
		<g id="hexatar-beard"></g>
		<g id="hexatar-mustache"></g>
		<g id="hexatar-nose"></g>
		<g id="hexatar-eyeGroup">
			<g id="hexatar-eye"></g>
			<g id="hexatar-eyebrows"></g>	
		</g>
		<g id="hexatar-hair-front"><g class="element-front">
		<g class="hair-ext" style="display: block;">
			<polygon class="col-obj" style="fill: rgb(178, 156, 142);" points="153.611,168.76 161.992,75.65 256.175,25.051 347.069,85.983  358.41,168.76 365.654,71.483 255.885,0.255 143.686,66.274"></polygon>
			<polygon class="shadow-obj" style="opacity: 0.4; fill: rgb(157, 129, 112);" points="255.999,0.328 255.999,25.145 256.175,25.051 347.069,85.983  358.41,168.76 365.654,71.483"></polygon>
		</g>
		<path class="col-obj" style="fill: rgb(178, 156, 142);" d="M256.107,6.182L153.498,70.315l0,154.796l18.068-81.424h28.786 c0,0,1.611-27.895,19.035-46.231c-10.737,27.224-9.541,46.231-9.541,46.231h85.386c0,0-2.641-30.415-11.083-46.231 c14.799,10.6,18.515,46.231,18.515,46.231h37.568l18.068,81.424l0-153.955L256.107,6.182z"></path>
		<path class="shadow-obj" style="opacity: 0.4; fill: rgb(157, 129, 112);" d="M256.107,6.182l0.497,137.505h38.627c0,0-2.641-30.415-11.083-46.231 c14.799,10.6,18.515,46.231,18.515,46.231h37.568l18.068,81.424l0-153.955L256.107,6.182z"></path>
	</g></g>
		<g id="hexatar-hat"></g>
		<g id="hexatar-eyeglasses"><g class="hexatar-base">
		<g class="hexatar-eyeglasses-right">
			<path class="col-obj" style="fill: rgb(33, 33, 33);" d="M255.992,181.007c-8.63,0.253-18.41-2.23-25.259-7.487 c-5.102-3.916-12.015-6.344-20.75-6.344c-12.089,0-20.735,4.39-25.891,11.207h-5.194c-2.532,0-4.585,2.053-4.585,4.585v7.038 c-0.339,0.047-0.682,0.081-1.032,0.081c-0.583,2.007-0.583,3.114,0,5.12h4.326c0.818,0,0.803,0.816,0.803,1.228 c0,16.159,11.828,31.301,31.572,31.301c20.399,0,31.572-15.142,31.572-31.301c0-0.026,0-0.052,0-0.078 c-0.012-4.771,4.555-8.886,9.274-9.591c2.986-0.446,5.165-0.485,5.165-0.485v-5.273 C255.995,181.007,255.994,181.007,255.992,181.007z M209.983,223.263c-16.726,0-26.745-13.139-26.745-26.828 s9.031-24.786,26.745-24.786c17.878,0,26.745,12.003,26.745,24.786C236.729,210.124,227.264,223.263,209.983,223.263z"></path>
		</g>
		<g class="hexatar-eyeglasses-left">
			<path class="col-obj" style="fill: rgb(33, 33, 33);" d="M338.771,190.087c-0.33,0-0.652-0.034-0.972-0.076v-7.043 c0-2.532-2.053-4.585-4.585-4.585h-5.254c-5.156-6.817-13.801-11.207-25.891-11.207c-8.722,0-15.627,2.42-20.726,6.326 c-6.87,5.261-16.654,7.801-25.302,7.507c-0.031-0.001-0.046-0.001-0.046-0.001v5.273c0,0,2.207,0.039,5.22,0.489 c4.722,0.704,9.293,4.818,9.282,9.592c0,0.025,0,0.049,0,0.074c0,16.159,11.173,31.301,31.572,31.301 c19.745,0,31.572-15.142,31.572-31.301c0,0,0.47-1.228,1.78-1.228c1.31,0,3.349,0,3.349,0 C339.354,193.201,339.354,192.093,338.771,190.087z M302.069,223.263c-17.281,0-26.745-13.139-26.745-26.828 c0-12.783,8.867-24.786,26.745-24.786c17.715,0,26.745,11.097,26.745,24.786S318.795,223.263,302.069,223.263z"></path>
			<path class="shadow-obj" style="opacity: 0.4; fill: rgb(7, 7, 7);" d="M338.771,190.087c-0.33,0-0.652-0.034-0.972-0.076v-7.043 c0-2.532-2.053-4.585-4.585-4.585h-5.254c-5.156-6.817-13.801-11.207-25.891-11.207c-8.722,0-15.627,2.42-20.726,6.326 c-6.87,5.261-16.654,7.801-25.302,7.507c-0.031-0.001-0.046-0.001-0.046-0.001v5.273c0,0,2.207,0.039,5.22,0.489 c4.722,0.704,9.293,4.818,9.282,9.592c0,0.025,0,0.049,0,0.074c0,16.159,11.173,31.301,31.572,31.301 c19.745,0,31.572-15.142,31.572-31.301c0,0,0.47-1.228,1.78-1.228c1.31,0,3.349,0,3.349,0 C339.354,193.201,339.354,192.093,338.771,190.087z M302.069,223.263c-17.281,0-26.745-13.139-26.745-26.828 c0-12.783,8.867-24.786,26.745-24.786c17.715,0,26.745,11.097,26.745,24.786S318.795,223.263,302.069,223.263z"></path>
		</g>
	</g></g>
	</g>
	<desc>Avatar generated from Hexatar.com - created with Snap</desc><text transform="matrix(1 0 0 1 0 528)" font-size="12">Avatar generated from Hexatar.com</text></svg>