<svg width="512" height="512" id="hexatar-preview" version="1.1" xmlns="http://www.w3.org/2000/svg" xmlns:xlink="http://www.w3.org/1999/xlink" x="0px" y="0px" viewBox="0 0 512 512" style="enable-background:new 0 0 512 512;" xml:space="preserve">
    <g id="hexatar-background"><g class="hexatar-base">
		<rect class="col-obj" x="-0.004" y="0.003" style="fill: rgb(255, 255, 255);" width="512" height="512"></rect>
	</g></g>
	<g id="hexatar-hair-rear"></g>
	<g id="hexatar-bodies" transform="matrix(1.3,0,0,1.3,-76.7999,-126.8227)">
		<g id="hexatar-body">
			<polygon class="col-obj" style="fill: rgb(254, 226, 208);" points="380.515,465 301,451 301,334 211,334 211,451 131.636,465 94.115,512   418.035,512 "></polygon>
			<polygon class="shadow-obj" style="fill: rgb(253, 195, 158);" points="380.541,465 301,451 301,334 256,334 256,512 418.062,512 "></polygon>
			<polygon id="hexatar-neck-control" class="shadow-obj-2x" style="opacity: 0.5; fill: rgb(252, 164, 108);" points="301.054,387.482 255.998,427.693 210.942,384.615  210.942,333.485 301.054,333.485 "></polygon>
		</g>
		<g id="hexatar-clothes"><g class="hexatar-base">
		<path class="shadow-obj-2x" style="fill: rgb(117, 60, 39);" d="M329.553,417.167h-28.499v14.956h43.008v-0.447 C344.063,423.663,337.567,417.167,329.553,417.167z M167.935,432.123h43.008v-14.956h-28.052 C174.631,417.167,167.935,423.863,167.935,432.123z"></path>
		<path class="col-obj" style="fill: rgb(192, 99, 66);" d="M382.755,464.994L344,457.399v-25.405h-54.605 c-18.075,0-33.356,6.885-33.356,25.173c0-18.288-14.024-25.173-32.099-25.173H168v25.405l-38.757,7.595l-37.084,47h327.68 L382.755,464.994z"></path>
		<path class="shadow-obj" style="fill: rgb(155, 79, 52);" d="M344.064,457.296v-25.173h-54.669c-17.96,0-33.31,6.741-33.31,25.173 l-28.757,16.838v7.75c-2.048,0.746-3.536,2.699-3.536,5.014c0,2.955,2.396,5.351,5.351,5.351c2.955,0,5.351-2.396,5.351-5.351 c0-2.136-1.022-3.965-3.07-4.823v-3.522L256,462.099v49.896h2.048v-49.926l26.624,16.484v3.331 c-2.048,0.746-3.536,2.699-3.536,5.014c0,2.955,2.396,5.351,5.351,5.351c2.955,0,5.351-2.396,5.351-5.351 c0-2.136-1.022-3.965-3.07-4.823v-5.87l-30.72-18.909H344.064z"></path>
	</g></g>
	</g>
	<g id="hexatar-faces">
		<g id="hexatar-ears"><g class="hexatar-base">
		<g class="hexatar-ears-right"> 	<path class="col-obj" style="fill: rgb(254, 226, 208);" d="M172.062,168.76v69.632h-11.593c-18.105,0-32.781-14.677-32.781-32.781V168.76 H172.062z"></path> 	<path class="shadow-obj" style="fill: rgb(253, 195, 158);" d="M160.469,228.392c-12.562,0-22.781-10.22-22.781-22.781V178.76h34.374v49.632 H160.469z"></path>
		</g>
		<g class="hexatar-ears-left"> 	<path class="shadow-obj" style="fill: rgb(253, 195, 158);" d="M340.163,238.392V168.76h42.812v36.851c0,18.105-14.677,32.781-32.781,32.781 H340.163z"></path> 	<path class="shadow-obj-2x" style="fill: rgb(252, 164, 108);" d="M340.163,228.392V178.76h32.812v26.851 c0,12.562-10.22,22.781-22.781,22.781H340.163z"></path>
		</g>
	</g></g>
		<g id="hexatar-face"><g class="hexatar-base">
		<path class="col-obj" style="fill: rgb(254, 226, 208);" d="M256.005,7.17l-102.4,64.185l0,215.354c0,30.805,15.891,59.432,42.035,75.724 l29.615,18.455c18.815,11.725,42.668,11.701,61.46-0.062l29.805-18.657c26.058-16.311,41.883-44.887,41.883-75.629l0-215.185 L256.005,7.17z"></path>
		<path class="shadow-obj" style="fill: rgb(253, 195, 158);" d="M286.716,380.827L286.716,380.827l29.806-18.657 c26.058-16.311,41.883-44.887,41.883-75.629V71.355L256.005,7.17l-0.001,382.495C266.666,389.652,277.323,386.706,286.716,380.827 z"></path>
	</g></g>
		<g id="hexatar-mouth"></g>
		<g id="hexatar-beard"><g class="hexatar-base">
		<polygon class="col-obj" style="fill: rgb(195, 153, 107);" points="339.689,227.765 339.689,301.365 284.562,358.831 268.29,358.831  268.29,351.351 261.463,335.083 250.726,335.083 243.899,351.351 243.899,358.831 229.607,358.831 172.537,303.489  172.537,227.765 153.613,227.765 153.613,351.682 226.502,412.026 287.667,412.026 358.604,351.682 358.603,351.682  358.613,227.765"></polygon>
		<polygon class="shadow-obj" style="opacity: 0.4; fill: rgb(179, 128, 72);" points="339.689,227.765 339.689,301.365 284.562,358.831 268.29,358.831  268.29,351.351 261.463,335.083 256.093,335.083 256.093,412.026 287.667,412.026 358.604,351.682 358.603,351.682  358.613,227.765"></polygon>
	</g></g>
		<g id="hexatar-mustache"></g>
		<g id="hexatar-nose" transform="matrix(1,0,0,1,0,27)"></g>
		<g id="hexatar-eyeGroup">
			<g id="hexatar-eye" transform="matrix(1,0,0,1,0,10)"></g>
			<g id="hexatar-eyebrows" transform="matrix(1,0,0,1,0,11)"></g>	
		</g>
		<g id="hexatar-hair-front"><g class="element-front">
			<polygon class="col-obj" style="fill: rgb(195, 153, 107);" points="256.208,6.901 154,71.356 154,175 173,175 173,72.492 200.551,100 339,100  339,175 358,175 358,71.356"></polygon>
			<polygon class="shadow-obj" style="opacity: 0.4; fill: rgb(179, 128, 72);" points="256,6.901 256,100 339,100 339,175 358,175 358,71.356"></polygon>
		</g></g>
		<g id="hexatar-hat"></g>
		<g id="hexatar-eyeglasses" transform="matrix(1,0,0,1,0,25)"><g class="hexatar-base">
		<g class="hexatar-eyeglasses-right">
			<path class="col-obj" style="fill: rgb(17, 17, 17);" d="M256.006,173.97h-9.791c-0.466-1.754-0.715-3.006-0.715-3.006H217.38 c-2.647-0.157-5.064-0.207-7.022-0.207c-4.139,0-7.827,0.057-11.116,0.207h-30.846v6.26c0,1.312,0.78,2.492,1.986,3.008 c1.811,0.776,4.157,2.84,3.815,8.335l0.003-0.004c-0.47,4.795-0.553,9.206-0.2,13.085c0.124,1.356,1.071,2.429,2.306,2.787 c1.479,9.351,5.73,15.559,12.757,18.486c7.065,2.944,17.602,4.846,26.846,4.846c5.787,0,13.614-0.742,18.033-4.277 c4.503-3.602,7.634-10.516,9.523-18.204c1.164-0.287,2.122-1.206,2.382-2.459c0.311-1.503,0.581-3.002,0.81-4.487 c0.716-4.643,4.651-8.101,9.348-8.101l0,0v-5.14h-3.235c-2.85,0-5.024-5.764-6.224-9.931h9.459V173.97z M240.916,204.844 c-1.793,7.2-4.667,13.512-8.578,16.64c-2.994,2.395-8.828,3.714-16.428,3.714c-8.931,0-19.081-1.824-25.857-4.648 c-6.119-2.549-9.853-8.07-11.202-16.449c1.02-0.616,1.664-1.768,1.549-3.034c-0.356-3.91-0.238-8.452,0.349-13.499 c0.898-7.717,2.585-10.386,29.61-10.386c21.293,0,30.824,4.854,30.824,9.664c0,4.398-0.577,9.612-1.626,14.68 C239.283,202.845,239.862,204.138,240.916,204.844z"></path>
		</g>
		<g class="hexatar-eyeglasses-left">
			<path class="col-obj" style="fill: rgb(17, 17, 17);" d="M256.007,175.169h9.459c-1.2,4.167-3.375,9.931-6.224,9.931h-3.235v5.14h0 c4.698,0,8.633,3.458,9.348,8.101c0.229,1.485,0.499,2.984,0.81,4.487c0.259,1.253,1.218,2.172,2.382,2.459 c1.89,7.688,5.02,14.602,9.523,18.204c4.419,3.536,12.246,4.277,18.033,4.277c9.244,0,19.782-1.902,26.846-4.846 c7.027-2.928,11.278-9.135,12.757-18.486c1.235-0.358,2.183-1.431,2.306-2.787c0.353-3.88,0.27-8.29-0.2-13.085l0.003,0.004 c-0.342-5.495,2.004-7.559,3.815-8.335c1.206-0.517,1.986-1.696,1.986-3.008v-6.26h-30.846c-3.289-0.15-6.977-0.207-11.116-0.207 c-1.958,0-4.375,0.05-7.022,0.207h-28.119c0,0-0.25,1.252-0.715,3.006h-9.791V175.169z M272.457,201.527 c-1.049-5.068-1.626-10.282-1.626-14.68c0-4.81,9.531-9.664,30.824-9.664c27.026,0,28.712,2.669,29.61,10.386 c0.587,5.047,0.705,9.589,0.349,13.499c-0.115,1.267,0.528,2.419,1.549,3.034c-1.349,8.379-5.084,13.9-11.202,16.449 c-6.777,2.824-16.926,4.648-25.857,4.648c-7.599,0-13.434-1.319-16.428-3.714c-3.911-3.129-6.785-9.441-8.578-16.64 C272.15,204.138,272.73,202.845,272.457,201.527z"></path>
			<path class="shadow-obj" style="opacity: 0.4; fill: rgb(0, 0, 0);" d="M256.007,175.169h9.459c-1.2,4.167-3.375,9.931-6.224,9.931h-3.235v5.14h0 c4.698,0,8.633,3.458,9.348,8.101c0.229,1.485,0.499,2.984,0.81,4.487c0.259,1.253,1.218,2.172,2.382,2.459 c1.89,7.688,5.02,14.602,9.523,18.204c4.419,3.536,12.246,4.277,18.033,4.277c9.244,0,19.782-1.902,26.846-4.846 c7.027-2.928,11.278-9.135,12.757-18.486c1.235-0.358,2.183-1.431,2.306-2.787c0.353-3.88,0.27-8.29-0.2-13.085l0.003,0.004 c-0.342-5.495,2.004-7.559,3.815-8.335c1.206-0.517,1.986-1.696,1.986-3.008v-6.26h-30.846c-3.289-0.15-6.977-0.207-11.116-0.207 c-1.958,0-4.375,0.05-7.022,0.207h-28.119c0,0-0.25,1.252-0.715,3.006h-9.791V175.169z M272.457,201.527 c-1.049-5.068-1.626-10.282-1.626-14.68c0-4.81,9.531-9.664,30.824-9.664c27.026,0,28.712,2.669,29.61,10.386 c0.587,5.047,0.705,9.589,0.349,13.499c-0.115,1.267,0.528,2.419,1.549,3.034c-1.349,8.379-5.084,13.9-11.202,16.449 c-6.777,2.824-16.926,4.648-25.857,4.648c-7.599,0-13.434-1.319-16.428-3.714c-3.911-3.129-6.785-9.441-8.578-16.64 C272.15,204.138,272.73,202.845,272.457,201.527z"></path>
		</g>
	</g></g>
	</g>
	<desc>Avatar generated from Hexatar.com - created with Snap</desc><text transform="matrix(1 0 0 1 0 528)" font-size="12">Avatar generated from Hexatar.com</text></svg>