<svg width="512" height="512" id="hexatar-preview" version="1.1" xmlns="http://www.w3.org/2000/svg" xmlns:xlink="http://www.w3.org/1999/xlink" x="0px" y="0px" viewBox="0 0 512 512" style="enable-background:new 0 0 512 512;" xml:space="preserve">
    <g id="hexatar-background"><g class="hexatar-base">
		<rect class="col-obj" x="-0.003" y="0.002" style="fill: transparent;" width="512" height="512"></rect>
		<path class="light-obj" style="opacity: 0.9; fill: transparent;" d="M281.14,0.239h-39.041l19.523,249.409L281.14,0.239z M0.236,235.926 v27.461l261.371-13.732L0.236,235.926z M511.76,429.885l-250.13-180.221l250.13,232.994V429.885z M0.236,6.17v55.146 l261.381,188.336L0.236,6.17z M0.236,437.998v55.147l261.376-243.476L0.236,437.998z M261.631,249.664L261.631,249.664 L261.631,249.664L261.631,249.664z M158.761,0.239l102.856,249.409L110.949,0.239H58.828l202.793,249.416L200.614,0.239H158.761z M511.76,16.659L261.636,249.648L464.429,0.239h-52.13L261.636,249.644L364.496,0.239h-41.858l-61.008,249.414l-0.009,0.002 l0.005,0.005h0.005l250.13,136.502v-35.087L261.645,249.664l250.115,69.233V290.72l-250.13-41.065l250.13,13.142v-26.282 l-250.115,13.14l250.115-41.06v-28.177l-250.125,69.237L511.76,148.24v-35.092L261.659,249.636L511.76,69.43V16.659z M0.236,107.01v36.666l261.373,105.977L0.236,177.303v29.445l261.385,42.907l-0.011-0.003L0.236,107.01z M0.236,392.303 L261.617,249.66L0.236,355.644V392.303z M48.51,511.763h54.783l158.324-262.085L153.534,511.763h43.989l64.09-262.02 l-20.507,262.02h41.032l-20.511-262.08l64.104,262.08h43.988L261.631,249.669L419.96,511.763h54.778L261.63,249.665l-0.004,0.004 l-0.005-0.005l0.005,0.014l-0.005,0.005v-0.019h0.008l-0.004-0.005h-0.005L48.51,511.763z M0.236,322.014l261.376-72.354 L0.236,292.571V322.014z M261.612,249.66h0.005h0.005v-0.005L261.612,249.66z"></path>
	</g></g>
	<g id="hexatar-hair-rear"><g class="element-rear">
			<path class="shadow-obj" style="fill: rgb(172, 98, 23);" d="M149.891,168.76l-48.87,63.478l8.997,28.161 c20.291,63.511,79.315,106.616,145.989,106.616h0c66.673,0,125.697-43.105,145.989-106.616l8.997-28.161l-54.436-63.478H149.891z"></path>
			<polygon class="shadow-obj hair-ext" style="fill: rgb(172, 98, 23); display: block;" points="391.991,167.83 358.407,167.83  358.408,232.238 410.992,232.238"></polygon>
		</g></g>
	<g id="hexatar-bodies">
		<g id="hexatar-body">
			<polygon class="col-obj" style="fill: rgb(250, 214, 185);" points="380.515,465 301,451 301,334 211,334 211,451 131.636,465 94.115,512   418.035,512 "></polygon>
			<polygon class="shadow-obj" style="fill: rgb(247, 186, 137);" points="380.541,465 301,451 301,334 256,334 256,512 418.062,512 "></polygon>
			<polygon id="hexatar-neck-control" class="shadow-obj-2x" style="opacity: 0.5; fill: rgb(244, 158, 89);" points="301.054,387.482 255.998,427.693 210.942,384.615  210.942,333.485 301.054,333.485 "></polygon>
		</g>
		<g id="hexatar-clothes"><g class="hexatar-base">
		<polygon class="col-obj" style="fill: rgb(204, 0, 0);" points="382.755,464.994 329.298,453.417 329.298,432.066 256.039,461.97  182.739,432.066 182.739,453.417 129.243,464.994 92.159,511.994 419.839,511.994"></polygon>
		<path class="shadow-obj" style="fill: rgb(153, 0, 0);" d="M143.809,511.994h4.143l-13.275-38.112L143.809,511.994z M366.642,511.994 h4.143l9.132-38.112L366.642,511.994z"></path>
		<polygon class="white-obj" style="fill:#FFFFFF;" points="329.298,415.341 301.023,415.341 301.023,432.037 256.019,453.776  210.971,431.832 211.014,415.341 182.739,415.341 182.739,431.935 248.965,464.468 248.965,512 262.657,512 262.657,464.673  329.298,431.935"></polygon>
		<path class="static-obj" style="opacity:0.8;fill:#CCCCCC;" d="M301.055,424.03l-0.143,8.036l14.491-8.036H301.055z M195.803,424.03l15.168,7.773l-0.028-7.773H195.803z"></path>
	</g></g>
	</g>
	<g id="hexatar-faces">
		<g id="hexatar-ears"><g class="hexatar-base">
		<g class="hexatar-ears-right"> 	<path class="col-obj" style="fill: rgb(250, 214, 185);" d="M172.062,168.76v69.632h-11.593c-18.105,0-32.781-14.677-32.781-32.781V168.76 H172.062z"></path> 	<path class="shadow-obj" style="fill: rgb(247, 186, 137);" d="M160.469,228.392c-12.562,0-22.781-10.22-22.781-22.781V178.76h34.374v49.632 H160.469z"></path>
		</g>
		<g class="hexatar-ears-left"> 	<path class="shadow-obj" style="fill: rgb(247, 186, 137);" d="M340.163,238.392V168.76h42.812v36.851c0,18.105-14.677,32.781-32.781,32.781 H340.163z"></path> 	<path class="shadow-obj-2x" style="fill: rgb(244, 158, 89);" d="M340.163,228.392V178.76h32.812v26.851 c0,12.562-10.22,22.781-22.781,22.781H340.163z"></path>
		</g>
	</g></g>
		<g id="hexatar-face"><g class="hexatar-base">
		<path class="col-obj" style="fill: rgb(250, 214, 185);" d="M255.986,7.171l-102.4,64.185l0,202.679c0,11.644,3.45,23.027,9.913,32.712 l35.429,53.087c10.932,16.38,29.323,26.217,49.016,26.217h0.384h16.289c19.819,0,38.311-9.963,49.213-26.514l34.839-52.892 c6.338-9.623,9.716-20.893,9.716-32.415l0-202.874L255.986,7.171z"></path>
		<path class="shadow-obj" style="fill: rgb(247, 186, 137);" d="M255.986,7.171l-0.001,378.88h8.632h0c19.819,0,38.311-9.963,49.213-26.514 l34.839-52.892c6.338-9.623,9.716-20.893,9.716-32.415l0-202.874L255.986,7.171z"></path>
	</g></g>
		<g id="hexatar-mouth"></g>
		<g id="hexatar-beard"></g>
		<g id="hexatar-mustache"></g>
		<g id="hexatar-nose"></g>
		<g id="hexatar-eyeGroup">
			<g id="hexatar-eye"></g>
			<g id="hexatar-eyebrows"></g>	
		</g>
		<g id="hexatar-hair-front"><g class="element-front">
			<path class="col-obj" style="fill: rgb(217, 124, 29);" d="M153.465,70.651v93.773l-52.588,67.212l15.403,44.812 c71.803-45.498,119.774-115.41,139.071-198.195l0,0l0,0c17.197,25.984,46.28,41.61,77.439,41.61h5.182v57.59h20.292l0-107.172 L255.836,6.636L153.465,70.651z"></path>
			<path class="shadow-obj" style="opacity: 0.4; fill: rgb(172, 98, 23);" d="M255.836,6.636l-0.185,72.448c17.217,25.845,46.216,41.381,77.282,41.381 h5.182v57.59h20.292l0-107.172L255.836,6.636z"></path>
			<g class="hair-ext" style="display: block;">
				<path class="col-obj" style="fill: rgb(217, 124, 29);" d="M358.451,70.695c-0.044,0-102.615-64.059-102.615-64.059L144.081,70.695 l-43.06,161.543l15.403,44.812c71.803-45.498,120.115-115.41,139.413-198.195c17.198,25.983,45.938,41.61,77.097,41.61h5.182 v57.59h20.292V167.83h33.584L358.451,70.695z"></path>
				<path class="shadow-obj" style="opacity: 0.4; fill: rgb(172, 98, 23);" d="M358.451,70.695c-0.044,0-102.615-64.059-102.615-64.059v72.219 c17.198,25.983,45.938,41.61,77.097,41.61h5.182v57.59h20.292V167.83h33.584L358.451,70.695z"></path>
			</g>
		</g></g>
		<g id="hexatar-hat"></g>
		<g id="hexatar-eyeglasses"></g>
	</g>
	<desc>Avatar generated from Hexatar.com - created with Snap</desc><text transform="matrix(1 0 0 1 0 528)" font-size="12">Avatar generated from Hexatar.com</text></svg>