<svg width="512" height="512" id="hexatar-preview" version="1.1" xmlns="http://www.w3.org/2000/svg" xmlns:xlink="http://www.w3.org/1999/xlink" x="0px" y="0px" viewBox="0 0 512 512" style="enable-background:new 0 0 512 512;" xml:space="preserve">
    <g id="hexatar-background"><g class="hexatar-base">
		<rect class="col-obj" x="-0.004" y="0.003" style="fill: rgb(255, 255, 255);" width="512" height="512"></rect>
	</g></g>
	<g id="hexatar-hair-rear"><g class="element-rear">
			<path class="shadow-obj" style="fill: rgb(252, 120, 48);" d="M149.891,168.76l-48.87,63.478l8.997,28.161 c20.291,63.511,79.315,106.616,145.989,106.616h0c66.673,0,125.697-43.105,145.989-106.616l8.997-28.161l-54.436-63.478H149.891z"></path>
			<polygon class="shadow-obj hair-ext" style="fill: rgb(252, 120, 48); display: block;" points="391.991,167.83 358.407,167.83  358.408,232.238 410.992,232.238"></polygon>
		</g></g>
	<g id="hexatar-bodies" transform="matrix(1.2578,0,0,1.2578,-66.0794,-108.9886)">
		<g id="hexatar-body">
			<polygon class="col-obj" style="fill: rgb(255, 227, 218);" points="380.515,465 301,451 301,334 211,334 211,451 131.636,465 94.115,512   418.035,512 "></polygon>
			<polygon class="shadow-obj" style="fill: rgb(255, 188, 167);" points="380.541,465 301,451 301,334 256,334 256,512 418.062,512 "></polygon>
			<polygon id="hexatar-neck-control" class="shadow-obj-2x" style="opacity: 0.5; fill: rgb(255, 149, 116);" points="301.054,387.482 255.998,427.693 210.942,384.615  210.942,333.485 301.054,333.485 "></polygon>
		</g>
		<g id="hexatar-clothes"><g class="hexatar-base">
		<path class="white-obj" style="fill:#FFFFFF;" d="M346.964,511.763H164.792v-45.88c0,0,42.823,17.239,91.086,22.38 c48.263,5.141,91.086-2.974,91.086-2.974V511.763z"></path>
		<path class="col-obj" style="fill:#9DB720;" d="M382.755,464.989L344,457.394c0,0-8.211,49.072-88.495,49.072 S168,457.394,168,457.394l-38.757,7.595l-37.084,47h327.68L382.755,464.989z"></path>
		<path class="shadow-obj" style="opacity: 0.4; fill: rgb(120, 140, 24);" d="M92.159,511.989l48.677,0.006l-11.37-47.006L92.159,511.989z M383.147,464.989l-10.721,47.006l48.028-0.006L383.147,464.989z"></path>
	</g></g>
	</g>
	<g id="hexatar-faces">
		<g id="hexatar-ears"><g class="hexatar-base">
		<g class="hexatar-ears-right"> 	<path class="col-obj" style="fill: rgb(255, 227, 218);" d="M172.062,168.76v69.632h-11.593c-18.105,0-32.781-14.677-32.781-32.781V168.76 H172.062z"></path> 	<path class="shadow-obj" style="fill: rgb(255, 188, 167);" d="M160.469,228.392c-12.562,0-22.781-10.22-22.781-22.781V178.76h34.374v49.632 H160.469z"></path>
		</g>
		<g class="hexatar-ears-left"> 	<path class="shadow-obj" style="fill: rgb(255, 188, 167);" d="M340.163,238.392V168.76h42.812v36.851c0,18.105-14.677,32.781-32.781,32.781 H340.163z"></path> 	<path class="shadow-obj-2x" style="fill: rgb(255, 149, 116);" d="M340.163,228.392V178.76h32.812v26.851 c0,12.562-10.22,22.781-22.781,22.781H340.163z"></path>
		</g>
	</g></g>
		<g id="hexatar-face"><g class="hexatar-base">
		<path class="col-obj" style="fill: rgb(255, 227, 218);" d="M255.986,7.171l-102.4,64.185l0,176.961c0,12.41,3.693,24.539,10.608,34.843 l57.554,85.757c7.187,10.709,19.237,17.134,32.135,17.134h2.103h2.089c12.905,0,24.961-6.433,32.147-17.152l57.575-85.892 c6.903-10.298,10.589-22.416,10.589-34.814l0-176.837L255.986,7.171z"></path>
		<path class="shadow-obj" style="fill: rgb(255, 188, 167);" d="M290.221,368.898l57.575-85.892c6.903-10.298,10.589-22.416,10.589-34.814 V71.355L255.986,7.171l-0.001,378.88h2.089C270.98,386.051,283.036,379.618,290.221,368.898z"></path>
	</g></g>
		<g id="hexatar-mouth" transform="matrix(0.9793,0,0,0.9793,5.2994,3.7558)"><g class="hexatar-base">
		<path class="col-obj" style="fill: rgb(252, 138, 125);" d="M230.274,314.077h52.132l-9.513,12.24c-2.334,3.003-5.924,4.76-9.728,4.76h-13.65 c-3.803,0-7.394-1.757-9.728-4.76L230.274,314.077z"></path>
		<path class="shadow-obj" style="fill: rgb(251, 93, 75);" d="M260.756,306.128l-4.415,2.306l-4.415-2.306 c-2.239-1.169-4.795-1.586-7.29-1.188l-34.767,5.547l21.621,7.264h49.267l22.057-7.264l-34.767-5.547 C265.551,304.542,262.995,304.958,260.756,306.128z"></path>
	</g></g>
		<g id="hexatar-beard"></g>
		<g id="hexatar-mustache"></g>
		<g id="hexatar-nose"></g>
		<g id="hexatar-eyeGroup">
			<g id="hexatar-eye" transform="matrix(1,0,0,1,0,14.687)"><g class="hexatar-base">
		<g class="hexatar-eye-right">
			<path class="white-obj" style="fill:#FFFFFF;" d="M228.318,199.484c0-0.397-5.824-10.069-18.375-10.069 c-12.551,0-23.688,7.526-23.688,7.526s10.864,5.68,21.992,5.68s18.348-2.549,18.348-2.549S228.892,201.193,228.318,199.484z"></path>
			<path class="shadow-obj" style="opacity: 0.3; fill: rgb(0, 0, 0);" d="M217.246,193.964c0.088-1.016-0.004-2.003-0.237-2.94 l-5.951-1.869l-11.005,0.442c-0.379,0.871-0.633,1.813-0.72,2.811c-0.43,4.946,3.232,9.305,8.178,9.734 S216.816,198.91,217.246,193.964z"></path>
			<circle class="col-obj" style="fill: rgb(17, 17, 17);" cx="208.331" cy="192.911" r="4.204"></circle>
			<circle class="white-obj" style="fill:#FFFFFF;" cx="204.475" cy="195.447" r="2.614"></circle>
			<path class="hair-col" style="fill: rgb(217, 124, 29);" d="M227.83,191.719c-13.786-9.53-25.439-7.709-37.29-3.616 C190.54,188.104,215.119,183.531,227.83,191.719z M207.333,188.707c-12.896,0-16.093,4.948-24.492,0.2 c1.406,2.076,2.745,3.414,4.017,4.084l-2.745-0.133c-2.075-0.335-3.481-1.071-4.285-2.076c0.335,0.803,2.715,5.607,6.427,6.16 c1.004-0.736,8.927-6.695,21.558-6.695c12.63,0,17.607,5.958,20.017,8.368C227.094,197.075,220.962,188.707,207.333,188.707z"></path>
		</g>
		<g class="hexatar-eye-left">
			<path class="white-obj" style="fill:#FFFFFF;" d="M285.921,199.484c0-0.397,5.824-10.069,18.375-10.069 s23.688,7.526,23.688,7.526s-10.864,5.68-21.992,5.68c-11.129,0-18.348-2.549-18.348-2.549S285.346,201.193,285.921,199.484z"></path>
			<path class="shadow-obj" style="opacity: 0.3; fill: rgb(0, 0, 0);" d="M296.993,193.964c-0.088-1.016,0.004-2.003,0.237-2.94 l5.951-1.869l11.005,0.442c0.379,0.871,0.633,1.813,0.72,2.811c0.43,4.946-3.232,9.305-8.178,9.734 C301.781,202.572,297.423,198.91,296.993,193.964z"></path>
			<circle class="col-obj" style="fill: rgb(17, 17, 17);" cx="305.907" cy="192.911" r="4.204"></circle>
			<circle class="white-obj" style="fill:#FFFFFF;" cx="301.704" cy="195.665" r="2.614"></circle>
			<path class="hair-col-2x" style="fill: rgb(172, 98, 23);" d="M323.699,188.104c-11.852-4.093-23.505-5.915-37.29,3.616 C299.12,183.531,323.699,188.104,323.699,188.104z M286.409,198.614c2.41-2.409,7.387-8.368,20.017-8.368 c12.63,0,20.554,5.958,21.557,6.695c3.711-0.553,6.092-5.357,6.427-6.16c-0.803,1.005-2.209,1.741-4.285,2.076l-2.745,0.133 c1.272-0.67,2.611-2.008,4.017-4.084c-8.398,4.747-11.596-0.2-24.492-0.2C293.277,188.707,287.145,197.075,286.409,198.614z"></path>
		</g>
	</g></g>
			<g id="hexatar-eyebrows" transform="matrix(1,0,0,1,0,7)"><g class="hexatar-base">
		<g class="hexatar-eyebrows-right"> 	<path class="col-obj" style="fill: rgb(217, 124, 29);" d="M182.905,167.553l10.957-3.576l10.134,3.022l3.458,1.732 c6.944,3.477,14.489,5.593,22.228,6.233l2.253,0.186l0,0c-1.587-5.55-6.403-9.567-12.147-10.135l-3.113-0.308l-0.753-0.276 c-7.834-2.874-16.175-4.111-24.506-3.636h0L182.905,167.553z"></path>
		</g>
		<g class="hexatar-eyebrows-left"> 	<path class="col-obj" style="fill: rgb(217, 124, 29);" d="M329.858,167.553l-10.957-3.576l-10.134,3.022l-3.458,1.732 c-6.944,3.477-14.489,5.593-22.228,6.233l-2.253,0.186l0,0c1.587-5.55,6.403-9.567,12.147-10.135l3.113-0.308l0.753-0.276 c7.834-2.874,16.175-4.111,24.506-3.636h0L329.858,167.553z"></path> 	<path class="shadow-obj" style="opacity: 0.4; fill: rgb(172, 98, 23);" d="M329.858,167.553l-10.957-3.576l-10.134,3.022l-3.458,1.732 c-6.944,3.477-14.489,5.593-22.228,6.233l-2.253,0.186l0,0c1.587-5.55,6.403-9.567,12.147-10.135l3.113-0.308l0.753-0.276 c7.834-2.874,16.175-4.111,24.506-3.636h0L329.858,167.553z"></path>
		</g>
	</g></g>	
		</g>
		<g id="hexatar-hair-front"><g class="element-front">
			<path class="col-obj" style="fill: rgb(253, 153, 98);" d="M153.465,70.651v93.773l-52.588,67.212l15.403,44.812 c71.803-45.498,119.774-115.41,139.071-198.195l0,0l0,0c17.197,25.984,46.28,41.61,77.439,41.61h5.182v57.59h20.292l0-107.172 L255.836,6.636L153.465,70.651z"></path>
			<path class="shadow-obj" style="opacity: 0.4; fill: rgb(252, 120, 48);" d="M255.836,6.636l-0.185,72.448c17.217,25.845,46.216,41.381,77.282,41.381 h5.182v57.59h20.292l0-107.172L255.836,6.636z"></path>
			<g class="hair-ext" style="display: block;">
				<path class="col-obj" style="fill: rgb(253, 153, 98);" d="M358.451,70.695c-0.044,0-102.615-64.059-102.615-64.059L144.081,70.695 l-43.06,161.543l15.403,44.812c71.803-45.498,120.115-115.41,139.413-198.195c17.198,25.983,45.938,41.61,77.097,41.61h5.182 v57.59h20.292V167.83h33.584L358.451,70.695z"></path>
				<path class="shadow-obj" style="opacity: 0.4; fill: rgb(252, 120, 48);" d="M358.451,70.695c-0.044,0-102.615-64.059-102.615-64.059v72.219 c17.198,25.983,45.938,41.61,77.097,41.61h5.182v57.59h20.292V167.83h33.584L358.451,70.695z"></path>
			</g>
		</g></g>
		<g id="hexatar-hat"></g>
		<g id="hexatar-eyeglasses" transform="matrix(1.1125,0,0,1.1125,-28.8136,-12.2406)"><g class="hexatar-base">
		<g class="hexatar-eyeglasses-right">
			<path class="col-obj" style="fill: rgb(33, 33, 33);" d="M256,184.966c-1.542-0.184-7.147-0.91-9.686-1.695 c-27.881-8.619-59.855-4.313-65.372-2.363c-2.181,0.771-5.952,3.875-7.843,5.49c-0.723,0.618-1.1,1.515-1.1,2.466v5.03 c0,1.487,1.125,2.783,2.566,3.148c0.177,5.826,1.419,9.463,2.779,10.528c18.454,14.464,63.289,10.873,69.724-6.637 c1.175-3.197,1.518-6.705,2.523-10.165c1.075-0.874,4.867-1.32,6.409-1.333V184.966z M242.214,200.882 c-12.212,15.665-47.363,12.356-56.942,6.588c-6.517-3.925-4.736-19.925,1.837-23.095c5.681-2.74,38.163-3.541,49.002-0.289 C248.556,187.82,243.424,199.33,242.214,200.882z"></path>
		</g>
		<g class="hexatar-eyeglasses-left">
			<path class="col-obj" style="fill: rgb(33, 33, 33);" d="M256,189.435c2,0.013,5.54,0.458,6.615,1.333 c1.004,3.46,1.553,6.969,2.728,10.165c6.435,17.51,51.212,21.101,69.666,6.637c1.36-1.066,2.483-4.702,2.66-10.528 c1.441-0.365,2.331-1.661,2.331-3.148v-5.03c0-0.951-0.2-1.848-0.923-2.466c-1.891-1.615-5.486-4.719-7.667-5.49 c-5.517-1.95-37.609-6.255-65.49,2.363c-2.539,0.785-7.921,1.511-9.921,1.695V189.435z M276.361,184.086 c10.839-3.251,43.32-2.451,49.002,0.289c6.573,3.17,8.354,19.17,1.837,23.095c-9.58,5.768-44.73,9.077-56.942-6.588 C269.047,199.33,263.915,187.82,276.361,184.086z"></path>
			<path class="shadow-obj" style="opacity: 0.4; fill: rgb(7, 7, 7);" d="M256,189.435c2,0.013,5.54,0.458,6.615,1.333 c1.004,3.46,1.553,6.969,2.728,10.165c6.435,17.51,51.212,21.101,69.666,6.637c1.36-1.066,2.483-4.702,2.66-10.528 c1.441-0.365,2.331-1.661,2.331-3.148v-5.03c0-0.951-0.2-1.848-0.923-2.466c-1.891-1.615-5.486-4.719-7.667-5.49 c-5.517-1.95-37.609-6.255-65.49,2.363c-2.539,0.785-7.921,1.511-9.921,1.695V189.435z M276.361,184.086 c10.839-3.251,43.32-2.451,49.002,0.289c6.573,3.17,8.354,19.17,1.837,23.095c-9.58,5.768-44.73,9.077-56.942-6.588 C269.047,199.33,263.915,187.82,276.361,184.086z"></path>
		</g>
	</g></g>
	</g>
	<desc>Avatar generated from Hexatar.com - created with Snap</desc><text transform="matrix(1 0 0 1 0 528)" font-size="12">Avatar generated from Hexatar.com</text></svg>