<svg width="512" height="512" id="hexatar-preview" version="1.1" xmlns="http://www.w3.org/2000/svg" xmlns:xlink="http://www.w3.org/1999/xlink" x="0px" y="0px" viewBox="0 0 512 512" style="enable-background:new 0 0 512 512;" xml:space="preserve">
    <g id="hexatar-background"><g class="hexatar-base">
		<rect class="col-obj" x="-0.004" y="0.003" style="fill: rgb(243, 233, 214);" width="512" height="512"></rect>
	</g></g>
	<g id="hexatar-hair-rear"></g>
	<g id="hexatar-bodies" transform="matrix(1.3,0,0,1.3,-76.7999,-126.8227)">
		<g id="hexatar-body">
			<polygon class="col-obj" style="fill: rgb(254, 226, 208);" points="380.515,465 301,451 301,334 211,334 211,451 131.636,465 94.115,512   418.035,512 "></polygon>
			<polygon class="shadow-obj" style="fill: rgb(253, 195, 158);" points="380.541,465 301,451 301,334 256,334 256,512 418.062,512 "></polygon>
			<polygon id="hexatar-neck-control" class="shadow-obj-2x" style="opacity: 0.5; fill: rgb(252, 164, 108);" points="301.054,387.482 255.998,427.693 210.942,384.615  210.942,333.485 301.054,333.485 "></polygon>
		</g>
		<g id="hexatar-clothes"><g class="hexatar-base">
		<path class="shadow-obj-2x" style="fill: rgb(117, 60, 39);" d="M329.553,417.167h-28.499v14.956h43.008v-0.447 C344.063,423.663,337.567,417.167,329.553,417.167z M167.935,432.123h43.008v-14.956h-28.052 C174.631,417.167,167.935,423.863,167.935,432.123z"></path>
		<path class="col-obj" style="fill: rgb(192, 99, 66);" d="M382.755,464.994L344,457.399v-25.405h-54.605 c-18.075,0-33.356,6.885-33.356,25.173c0-18.288-14.024-25.173-32.099-25.173H168v25.405l-38.757,7.595l-37.084,47h327.68 L382.755,464.994z"></path>
		<path class="shadow-obj" style="fill: rgb(155, 79, 52);" d="M344.064,457.296v-25.173h-54.669c-17.96,0-33.31,6.741-33.31,25.173 l-28.757,16.838v7.75c-2.048,0.746-3.536,2.699-3.536,5.014c0,2.955,2.396,5.351,5.351,5.351c2.955,0,5.351-2.396,5.351-5.351 c0-2.136-1.022-3.965-3.07-4.823v-3.522L256,462.099v49.896h2.048v-49.926l26.624,16.484v3.331 c-2.048,0.746-3.536,2.699-3.536,5.014c0,2.955,2.396,5.351,5.351,5.351c2.955,0,5.351-2.396,5.351-5.351 c0-2.136-1.022-3.965-3.07-4.823v-5.87l-30.72-18.909H344.064z"></path>
	</g></g>
	</g>
	<g id="hexatar-faces">
		<g id="hexatar-ears"><g class="hexatar-base">
		<g class="hexatar-ears-right"> 	<path class="col-obj" style="fill: rgb(254, 226, 208);" d="M172.062,168.76v69.632h-11.593c-18.105,0-32.781-14.677-32.781-32.781V168.76 H172.062z"></path> 	<path class="shadow-obj" style="fill: rgb(253, 195, 158);" d="M160.469,228.392c-12.562,0-22.781-10.22-22.781-22.781V178.76h34.374v49.632 H160.469z"></path>
		</g>
		<g class="hexatar-ears-left"> 	<path class="shadow-obj" style="fill: rgb(253, 195, 158);" d="M340.163,238.392V168.76h42.812v36.851c0,18.105-14.677,32.781-32.781,32.781 H340.163z"></path> 	<path class="shadow-obj-2x" style="fill: rgb(252, 164, 108);" d="M340.163,228.392V178.76h32.812v26.851 c0,12.562-10.22,22.781-22.781,22.781H340.163z"></path>
		</g>
	</g></g>
		<g id="hexatar-face"><g class="hexatar-base">
		<path class="col-obj" style="fill: rgb(254, 226, 208);" d="M256.005,7.17l-102.4,64.185l0,215.354c0,30.805,15.891,59.432,42.035,75.724 l29.615,18.455c18.815,11.725,42.668,11.701,61.46-0.062l29.805-18.657c26.058-16.311,41.883-44.887,41.883-75.629l0-215.185 L256.005,7.17z"></path>
		<path class="shadow-obj" style="fill: rgb(253, 195, 158);" d="M286.716,380.827L286.716,380.827l29.806-18.657 c26.058-16.311,41.883-44.887,41.883-75.629V71.355L256.005,7.17l-0.001,382.495C266.666,389.652,277.323,386.706,286.716,380.827 z"></path>
	</g></g>
		<g id="hexatar-mouth"><g class="hexatar-base">
		<path class="col-obj" style="fill: rgb(254, 210, 194);" d="M225.536,314.077h61.606l-7.554,3.65c-6.061,2.929-14.463,4.586-23.249,4.586h0 c-8.785,0-17.187-1.657-23.249-4.586L225.536,314.077z"></path>
		<path class="shadow-obj" style="fill: rgb(253, 173, 144);" d="M272.549,304.077h-10.691l-5.52,8.466l-5.52-8.466h-10.691 c-7.044,0-13.531,3.831-16.932,10h66.285C286.08,307.908,279.594,304.077,272.549,304.077z"></path>
	</g></g>
		<g id="hexatar-beard"><g class="hexatar-base">
		<polygon class="col-obj" style="fill: rgb(195, 153, 107);" points="339.689,227.765 339.689,301.365 284.562,358.831 268.29,358.831  268.29,351.351 261.463,335.083 250.726,335.083 243.899,351.351 243.899,358.831 229.607,358.831 172.537,303.489  172.537,227.765 153.613,227.765 153.613,351.682 226.502,412.026 287.667,412.026 358.604,351.682 358.603,351.682  358.613,227.765"></polygon>
		<polygon class="shadow-obj" style="opacity: 0.4; fill: rgb(179, 128, 72);" points="339.689,227.765 339.689,301.365 284.562,358.831 268.29,358.831  268.29,351.351 261.463,335.083 256.093,335.083 256.093,412.026 287.667,412.026 358.604,351.682 358.603,351.682  358.613,227.765"></polygon>
	</g></g>
		<g id="hexatar-mustache"></g>
		<g id="hexatar-nose" transform="matrix(1,0,0,1,0,27)"><g class="hexatar-base">
		<polygon class="shadow-obj" style="fill: rgb(253, 195, 158);" points="262.701,189.716 262.701,173.555 249.3,173.555 249.3,189.716  237.981,248.716 233.831,253.174 235.138,260.036 256.001,264.281 276.158,260.036 278.17,253.174 274.02,248.716"></polygon>
		<polygon class="shadow-obj-2x" style="fill: rgb(252, 164, 108);" points="262.701,189.716 262.701,173.555 256.001,173.555 256.001,264.281  276.158,260.036 278.17,253.174 274.02,248.716"></polygon>
	</g></g>
		<g id="hexatar-eyeGroup">
			<g id="hexatar-eye" transform="matrix(1,0,0,1,0,10)"><g class="hexatar-base">
		<g class="hexatar-eye-right">
			<path class="white-obj" style="fill:#FFFFFF;" d="M231.669,200.013c0,0-8.628-11.837-22.291-11.837 c-13.662,0-19.709,8.719-19.709,8.719s5.067,8.466,17.319,8.466c12.251,0,21.216-5.852,21.216-5.852 S230.354,201.474,231.669,200.013z"></path>
			<path class="shadow-obj" style="opacity: 0.3; fill: rgb(0, 0, 0);" d="M218.671,191.131c-0.18-0.779-0.454-1.51-0.793-2.197 c-7.55-1.041-13.762-0.357-18.474,0.845c-0.7,1.817-0.884,3.855-0.413,5.895c1.254,5.434,6.677,8.823,12.111,7.568 C216.537,201.988,219.925,196.566,218.671,191.131z"></path>
			<circle class="col-obj" style="fill: rgb(17, 17, 17);" cx="208.831" cy="193.403" r="5.227"></circle>
			<circle class="white-obj" style="fill:#FFFFFF;" cx="205.565" cy="197.013" r="2.568"></circle>
			<path class="hair-col" style="fill: rgb(195, 153, 107);" d="M209.558,186.663c-14.044,0-19.889,10.232-19.889,10.232 s6.86-8.204,19.829-8.204c12.969,0,22.171,11.322,22.171,11.322S223.602,186.663,209.558,186.663z"></path>
		</g>
		<g class="hexatar-eye-left">
			<path class="white-obj" style="fill:#FFFFFF;" d="M284.452,200.013c0,0,8.628-11.837,22.291-11.837s19.709,8.719,19.709,8.719 s-5.067,8.466-17.319,8.466c-12.251,0-21.216-5.852-21.216-5.852S285.768,201.474,284.452,200.013z"></path>
			<path class="shadow-obj" style="opacity: 0.3; fill: rgb(0, 0, 0);" d="M297.45,191.131c0.18-0.779,0.454-1.51,0.793-2.197 c7.55-1.041,13.762-0.357,18.474,0.845c0.7,1.817,0.884,3.855,0.413,5.895c-1.254,5.434-6.677,8.823-12.111,7.568 C299.584,201.988,296.196,196.566,297.45,191.131z"></path>
			<circle class="col-obj" style="fill: rgb(17, 17, 17);" cx="307.29" cy="193.403" r="5.227"></circle>
			<circle class="white-obj" style="fill:#FFFFFF;" cx="310.556" cy="197.013" r="2.568"></circle>
			<path class="hair-col-2x" style="fill: rgb(179, 128, 72);" d="M284.452,200.013c0,0,9.203-11.322,22.171-11.322 c12.969,0,19.829,8.204,19.829,8.204s-5.844-10.232-19.889-10.232C292.519,186.663,284.452,200.013,284.452,200.013z"></path>
		</g>
	</g></g>
			<g id="hexatar-eyebrows" transform="matrix(1,0,0,1,0,11)"><g class="hexatar-base">
		<g class="hexatar-eyebrows-right"> 	<path class="col-obj" style="fill: rgb(195, 153, 107);" d="M182.905,167.553l10.957-3.576l10.134,3.022l3.458,1.732 c6.944,3.477,14.489,5.593,22.228,6.233l2.253,0.186l0,0c-1.587-5.55-6.403-9.567-12.147-10.135l-3.113-0.308l-0.753-0.276 c-7.834-2.874-16.175-4.111-24.506-3.636h0L182.905,167.553z"></path>
		</g>
		<g class="hexatar-eyebrows-left"> 	<path class="col-obj" style="fill: rgb(195, 153, 107);" d="M329.858,167.553l-10.957-3.576l-10.134,3.022l-3.458,1.732 c-6.944,3.477-14.489,5.593-22.228,6.233l-2.253,0.186l0,0c1.587-5.55,6.403-9.567,12.147-10.135l3.113-0.308l0.753-0.276 c7.834-2.874,16.175-4.111,24.506-3.636h0L329.858,167.553z"></path> 	<path class="shadow-obj" style="opacity: 0.4; fill: rgb(179, 128, 72);" d="M329.858,167.553l-10.957-3.576l-10.134,3.022l-3.458,1.732 c-6.944,3.477-14.489,5.593-22.228,6.233l-2.253,0.186l0,0c1.587-5.55,6.403-9.567,12.147-10.135l3.113-0.308l0.753-0.276 c7.834-2.874,16.175-4.111,24.506-3.636h0L329.858,167.553z"></path>
		</g>
	</g></g>	
		</g>
		<g id="hexatar-hair-front"><g class="element-front">
			<polygon class="col-obj" style="fill: rgb(195, 153, 107);" points="256.208,6.901 154,71.356 154,175 173,175 173,72.492 200.551,100 339,100  339,175 358,175 358,71.356"></polygon>
			<polygon class="shadow-obj" style="opacity: 0.4; fill: rgb(179, 128, 72);" points="256,6.901 256,100 339,100 339,175 358,175 358,71.356"></polygon>
		</g></g>
		<g id="hexatar-hat"></g>
		<g id="hexatar-eyeglasses" transform="matrix(1,0,0,1,0,25)"><g class="hexatar-base">
		<g class="hexatar-eyeglasses-right">
			<path class="col-obj" style="fill: rgb(165, 150, 101);" d="M246.151,176.625c0,0,0.002,0.007,0.003,0.008 c-6.96-3.677-35.487-5.006-50.451-4.061c-11.019,0.696-21.225,3.782-21.225,3.782s0,2.598,0,4.386l-5.844,1.043v5.204 l5.844,1.043c0,1.352,0,3.7,0,3.7h5.209c-0.268-2.588-0.288-5.18-0.168-7.467c0.323-6.144,2.867-7.883,18.874-8.893 c14.131-0.892,42.862,0.647,43.128,4.712c0.223,3.405,0.029,7.65-0.622,11.648h3.213c1.644,0,3.05-1.221,3.235-2.855 c0.001-0.01,0.002-0.019,0.003-0.029c-0.001,0.018-0.001,0.036-0.002,0.054c2.157-3.853,8.647-3.677,8.647-3.677v-3.338 C250,181.884,251.015,178.403,246.151,176.625z"></path>
			<path class="static-obj" style="opacity:0.5;fill:#FFFFFF;" d="M236.227,203.407c-4.5,4.025-40.945,5.155-48.306,2.676 c-7.674-2.585-8.814-13.988-8.402-21.821c0.323-6.144,2.867-7.883,18.874-8.893c14.131-0.892,42.862,0.647,43.128,4.712 C242.023,187.734,240.429,199.649,236.227,203.407z"></path>
			<path class="static-obj" style="opacity:0.5;fill:#FFFFFF;" d="M236.227,198.806c-4.5,4.025-40.945,5.155-48.306,2.676 c-6.14-2.068-8.092-9.779-8.418-16.792c-0.349,7.815,0.88,18.854,8.418,21.393c7.361,2.48,43.806,1.349,48.306-2.676 c4.089-3.657,5.702-15.027,5.324-22.689C241.239,187.754,239.553,195.832,236.227,198.806z"></path>
		</g>
		<g class="hexatar-eyeglasses-left">
			<path class="col-obj" style="fill: rgb(165, 150, 101);" d="M265.84,176.625c0,0-0.002,0.007-0.003,0.008 c6.96-3.677,35.487-5.006,50.451-4.061c11.019,0.696,21.225,3.782,21.225,3.782s0,2.598,0,4.386l5.844,1.043v5.204l-5.844,1.043 c0,1.352,0,3.7,0,3.7h-5.209c0.268-2.588,0.288-5.18,0.168-7.467c-0.323-6.144-2.867-7.883-18.874-8.893 c-14.131-0.892-42.862,0.647-43.128,4.712c-0.223,3.405-0.029,7.65,0.622,11.648h-3.213c-1.644,0-3.05-1.221-3.235-2.855 c-0.001-0.01-0.002-0.019-0.003-0.029c0.001,0.018,0.001,0.036,0.002,0.054c-2.157-3.853-8.647-3.677-8.647-3.677v-3.338 C261.991,181.884,260.976,178.403,265.84,176.625z"></path>
			<path class="static-obj" style="opacity:0.5;fill:#FFFFFF;" d="M270.411,180.08c0.266-4.064,28.998-5.604,43.128-4.712 c16.008,1.011,18.551,2.749,18.874,8.893c0.412,7.833-0.728,19.236-8.402,21.821c-7.361,2.48-43.806,1.349-48.306-2.676 C271.503,199.649,269.91,187.734,270.411,180.08z"></path>
			<path class="static-obj" style="opacity:0.5;fill:#FFFFFF;" d="M324.012,201.482c-7.361,2.48-43.806,1.349-48.306-2.676 c-3.325-2.974-5.011-11.052-5.324-18.088c-0.378,7.662,1.235,19.032,5.324,22.689c4.5,4.025,40.945,5.155,48.306,2.676 c7.538-2.539,8.768-13.578,8.418-21.393C332.104,191.703,330.152,199.414,324.012,201.482z"></path>
		</g>
	</g></g>
	</g>
	<desc>Avatar generated from Hexatar.com - created with Snap</desc><text transform="matrix(1 0 0 1 0 528)" font-size="12">Avatar generated from Hexatar.com</text></svg>