<svg width="512" height="512" id="hexatar-preview" version="1.1" xmlns="http://www.w3.org/2000/svg" xmlns:xlink="http://www.w3.org/1999/xlink" x="0px" y="0px" viewBox="0 0 512 512" style="enable-background:new 0 0 512 512;" xml:space="preserve">
    <g id="hexatar-background"><g class="hexatar-base">
		<rect class="col-obj" x="-0.004" y="0.003" style="fill: transparent;" width="512" height="512"></rect>
	</g></g>
	<g id="hexatar-hair-rear"></g>
	<g id="hexatar-bodies">
		<g id="hexatar-body">
			<polygon class="col-obj" style="fill: rgb(160, 109, 60);" points="380.515,465 301,451 301,334 211,334 211,451 131.636,465 94.115,512   418.035,512 "></polygon>
			<polygon class="shadow-obj" style="fill: rgb(123, 84, 46);" points="380.541,465 301,451 301,334 256,334 256,512 418.062,512 "></polygon>
			<polygon id="hexatar-neck-control" class="shadow-obj-2x" style="opacity: 0.5; fill: rgb(86, 59, 32);" points="301.054,387.482 255.998,427.693 210.942,384.615  210.942,333.485 301.054,333.485 "></polygon>
		</g>
		<g id="hexatar-clothes"><g class="hexatar-base">
		<path class="shadow-obj-2x" style="fill: rgb(104, 93, 60);" d="M346.448,403.978h-44.967l-0.458,7.478l12.481,31.903h47.454v-24.872 C360.957,410.474,354.461,403.978,346.448,403.978z M151.031,418.935v24.424h47.459l12.481-31.903v-7.478l-44.985,0.001 C157.727,403.979,151.031,410.675,151.031,418.935z"></path>
		<polygon class="static-obj" style="fill:#CCCCCC;" points="315.28,435.317 256.02,449.035 196.75,435.317 195.746,511.994  316.867,511.994"></polygon>
		<polygon class="static-obj" style="fill:#EC373D;" points="271.123,511.994 261.805,473.204 268.504,464.719 255.998,448.879  243.493,464.719 250.192,473.204 240.874,511.994"></polygon>
		<path class="static-obj" style="fill:#666666;" d="M129.466,462.994l-37.307,49h162.096l-57.505-76.678L129.466,462.994z M383.147,464.994l-67.866-29.678l-56.957,76.678h162.131L383.147,464.994z"></path>
		<path class="static-obj" style="opacity:0.3;fill:#494949;" d="M75.159,511.994L123.836,512l-11.37-47.006L75.159,511.994z M383.147,464.994L372.426,512l48.028-0.006L383.147,464.994z"></path>
		<polygon class="white-obj" style="fill:#FFFFFF;" points="229.079,484.336 256.02,449.035 284.359,484.336 315.28,435.317  301.023,411.456 301.023,425.901 256.019,449.001 210.971,425.697 211.014,411.456 196.75,435.317"></polygon>
		<path class="col-obj" style="fill: rgb(165, 150, 101);" d="M147.403,455.083l-35.16,9.912l-37.084,47h131.175v-41.747 c0-30.157-25.145-52.086-55.302-52.086L151,432.343L147.403,455.083z M399.755,464.994l-35.376-9.595L361,432.343l0-14.182 c-30.157,0-54.605,21.929-54.605,52.086v41.747h130.444L399.755,464.994z"></path>
	</g></g>
	</g>
	<g id="hexatar-faces">
		<g id="hexatar-ears"><g class="hexatar-base">
		<g class="hexatar-ears-right"> 	<polygon class="col-obj" style="fill: rgb(160, 109, 60);" points="172.062,168.76 172.062,238.392 127.687,238.392 109.255,203.576  127.687,168.76"></polygon> 	<polygon class="shadow-obj" style="fill: rgb(123, 84, 46);" points="137.955,219.998 129.261,203.576 137.955,187.154 172.062,187.154  172.062,219.998"></polygon>
		</g>
		<g class="hexatar-ears-left"> 	<polygon class="shadow-obj" style="fill: rgb(123, 84, 46);" points="340.163,238.392 340.163,168.76 382.976,168.76 401.408,203.576  382.976,238.392"></polygon> 	<polygon class="shadow-obj-2x" style="fill: rgb(86, 59, 32);" points="372.708,187.154 381.402,203.576 372.708,219.998  340.163,219.998 340.163,187.154"></polygon>
		</g>
	</g></g>
		<g id="hexatar-face"><g class="hexatar-base">
		<polygon class="col-obj" style="fill: rgb(160, 109, 60);" points="256.005,7.17 153.605,71.355 153.605,218.686 162.892,248.202  181.345,341.65 242.487,386.05 270.342,386.05 330.664,341.363 349.117,248.202 358.404,218.686 358.404,71.355"></polygon>
		<path class="shadow-obj" style="fill: rgb(123, 84, 46);" d="M256.005,7.17l-0.001,378.88h14.338l60.322-44.687l18.454-93.161l9.287-29.516 V71.355L256.005,7.17z"></path>
	</g></g>
		<g id="hexatar-mouth"></g>
		<g id="hexatar-beard"><g class="hexatar-base">
		<polygon class="col-obj" style="fill: rgb(66, 66, 66);" points="339.689,227.765 339.689,301.365 284.562,358.831 268.29,358.831  268.29,351.351 261.463,335.083 250.726,335.083 243.899,351.351 243.899,358.831 229.607,358.831 172.537,303.489  172.537,227.765 153.613,227.765 153.613,302.339 153.613,376.912 229.607,412.026 284.562,412.026 358.603,376.912  358.603,376.912 358.603,302.339 358.603,227.765"></polygon>
		<polygon class="shadow-obj" style="opacity: 0.4; fill: rgb(40, 40, 40);" points="339.689,227.765 339.689,301.365 284.562,358.831 268.29,358.831  268.29,351.351 261.463,335.083 256.093,335.083 256.093,412.026 284.562,412.026 358.603,376.912 358.603,376.912  358.603,302.339 358.603,227.765"></polygon>
		<path class="shadow-obj-2x" style="opacity: 0.2; fill: rgb(14, 14, 14);" d="M153.613,376.912l75.995,35.114l-75.995-109.687V376.912z M282.908,412.026 l75.695-35.114v-74.574L282.908,412.026z"></path>
	</g></g>
		<g id="hexatar-mustache"></g>
		<g id="hexatar-nose"></g>
		<g id="hexatar-eyeGroup">
			<g id="hexatar-eye"></g>
			<g id="hexatar-eyebrows"></g>	
		</g>
		<g id="hexatar-hair-front"><g class="element-front">
			<path class="col-obj hair-ext" style="fill: rgb(66, 66, 66); display: block;" d="M161.46,58.486c-2.341,1.473-3.065,4.525-1.686,6.898 l2.288,3.634l8.635-5.435l-2.288-3.634C166.865,57.68,163.801,57.013,161.46,58.486z M148.663,76.614 c0,2.766,2.197,5.004,4.939,5.102h4.294V71.512h-4.294C150.86,71.609,148.663,73.848,148.663,76.614z M177.319,48.504 c-2.341,1.473-3.065,4.525-1.686,6.898l2.288,3.634l8.635-5.435l-2.288-3.634C182.724,47.697,179.66,47.03,177.319,48.504z M208.927,28.608c-2.341,1.473-3.065,4.525-1.686,6.898l2.288,3.634l8.635-5.435l-2.288-3.634 C214.332,27.802,211.268,27.135,208.927,28.608z M148.663,95.353c0,2.766,2.197,5.004,4.939,5.102h4.294V90.251h-4.294 C150.86,90.349,148.663,92.587,148.663,95.353z M193.068,38.591c-2.341,1.473-3.065,4.525-1.686,6.898l2.288,3.634l8.635-5.435 l-2.288-3.634C198.473,37.784,195.409,37.117,193.068,38.591z M148.663,132.701c0,2.766,2.197,5.004,4.939,5.102h4.294v-10.203 h-4.294C150.86,127.697,148.663,129.935,148.663,132.701z M148.663,113.962c0,2.766,2.197,5.004,4.939,5.102h4.294V108.86h-4.294 C150.86,108.958,148.663,111.196,148.663,113.962z M148.663,170.18c0,2.766,2.197,5.004,4.939,5.102h4.294v-10.203h-4.294 C150.86,165.175,148.663,167.414,148.663,170.18z M354.246,81.715h4.294c2.742-0.097,4.939-2.336,4.939-5.102 c0-2.766-2.197-5.004-4.939-5.102h-4.294V81.715z M224.786,18.626c-2.341,1.473-3.065,4.525-1.686,6.898l2.288,3.634l8.635-5.435 l-2.288-3.634C230.191,17.819,227.127,17.152,224.786,18.626z M148.663,151.44c0,2.766,2.197,5.004,4.939,5.102h4.294v-10.203 h-4.294C150.86,146.436,148.663,148.675,148.663,151.44z M358.54,90.251h-4.294v10.203h4.294 c2.742-0.097,4.939-2.336,4.939-5.102C363.479,92.587,361.282,90.349,358.54,90.251z M352.315,58.486 c-2.341-1.473-5.405-0.807-6.949,1.462l-2.288,3.634l8.635,5.435l2.288-3.634C355.38,63.011,354.656,59.959,352.315,58.486z M358.54,146.339h-4.294v10.203h4.294c2.742-0.097,4.939-2.336,4.939-5.102C363.479,148.675,361.282,146.436,358.54,146.339z M240.645,8.643c-2.341,1.473-3.065,4.525-1.686,6.898l2.288,3.634l8.635-5.435l-2.288-3.634 C246.05,7.837,242.986,7.17,240.645,8.643z M358.54,108.99h-4.294v10.203h4.294c2.742-0.097,4.939-2.336,4.939-5.102 C363.479,111.326,361.282,109.088,358.54,108.99z M358.54,127.73h-4.294v10.203h4.294c2.742-0.097,4.939-2.336,4.939-5.102 C363.479,130.065,361.282,127.827,358.54,127.73z M358.54,165.078h-4.294v10.203h4.294c2.742-0.097,4.939-2.336,4.939-5.102 C363.479,167.414,361.282,165.175,358.54,165.078z M273.13,8.643c-2.341-1.473-5.405-0.806-6.949,1.462l-2.288,3.634l8.635,5.435 l2.288-3.634C276.195,13.168,275.471,10.117,273.13,8.643z M288.989,18.626c-2.341-1.473-5.405-0.806-6.949,1.462l-2.288,3.634 l8.635,5.435l2.288-3.634C292.054,23.151,291.33,20.099,288.989,18.626z M304.848,28.608c-2.341-1.473-5.405-0.807-6.949,1.462 l-2.288,3.634l8.635,5.435l2.288-3.634C307.913,33.133,307.189,30.082,304.848,28.608z M320.707,38.591 c-2.341-1.473-5.405-0.807-6.949,1.462l-2.288,3.634l8.635,5.435l2.288-3.634C323.772,43.116,323.048,40.064,320.707,38.591z M336.456,48.504c-2.341-1.473-5.405-0.807-6.949,1.462L327.22,53.6l8.635,5.435l2.288-3.634 C339.521,53.029,338.797,49.977,336.456,48.504z"></path>
			<path class="shadow-obj hair-ext" style="opacity: 0.4; fill: rgb(40, 40, 40); display: block;" d="M304.848,28.608c-2.341-1.473-5.405-0.807-6.949,1.462 l-2.288,3.634l8.635,5.435l2.288-3.634C307.913,33.133,307.189,30.082,304.848,28.608z M320.707,38.591 c-2.341-1.473-5.405-0.807-6.949,1.462l-2.288,3.634l8.635,5.435l2.288-3.634C323.772,43.116,323.048,40.064,320.707,38.591z M273.13,8.643c-2.341-1.473-5.405-0.806-6.949,1.462l-2.288,3.634l8.635,5.435l2.288-3.634 C276.195,13.168,275.471,10.117,273.13,8.643z M354.246,81.715h4.294c2.742-0.097,4.939-2.336,4.939-5.102 c0-2.766-2.197-5.004-4.939-5.102h-4.294V81.715z M288.989,18.626c-2.341-1.473-5.405-0.806-6.949,1.462l-2.288,3.634 l8.635,5.435l2.288-3.634C292.054,23.151,291.33,20.099,288.989,18.626z M336.456,48.504c-2.341-1.473-5.405-0.807-6.949,1.462 L327.22,53.6l8.635,5.435l2.288-3.634C339.521,53.029,338.797,49.977,336.456,48.504z M352.315,58.486 c-2.341-1.473-5.405-0.807-6.949,1.462l-2.288,3.634l8.635,5.435l2.288-3.634C355.38,63.011,354.656,59.959,352.315,58.486z M358.54,108.99h-4.294v10.203h4.294c2.742-0.097,4.939-2.336,4.939-5.102C363.479,111.326,361.282,109.088,358.54,108.99z M358.54,90.251h-4.294v10.203h4.294c2.742-0.097,4.939-2.336,4.939-5.102C363.479,92.587,361.282,90.348,358.54,90.251z M358.54,165.078h-4.294v10.203h4.294c2.742-0.097,4.939-2.336,4.939-5.102C363.479,167.414,361.282,165.175,358.54,165.078z M358.54,146.339h-4.294v10.203h4.294c2.742-0.097,4.939-2.336,4.939-5.102C363.479,148.675,361.282,146.436,358.54,146.339z M358.54,127.729h-4.294v10.203h4.294c2.742-0.097,4.939-2.336,4.939-5.102C363.479,130.065,361.282,127.827,358.54,127.729z"></path>
			<path class="col-obj" style="fill: rgb(66, 66, 66);" d="M153.602,71.356v0.026l0,103.9v0.018h18.913V72.492l11.948,5.92 c45.239,22.415,98.322,22.549,143.674,0.362l11.353-5.554v102.154h18.576V71.438L256.211,6.901L153.602,71.356z"></path>
			<path class="shadow-obj" style="opacity: 0.4; fill: rgb(40, 40, 40);" d="M256.211,6.901l-0.195,0.123v88.291c24.675,0.099,49.371-5.411,72.121-16.541 l11.353-5.554v102.154h18.576V71.438L256.211,6.901z"></path>
		</g></g>
		<g id="hexatar-hat"></g>
		<g id="hexatar-eyeglasses"></g>
	</g>
	<desc>Avatar generated from Hexatar.com - created with Snap</desc><text transform="matrix(1 0 0 1 0 528)" font-size="12">Avatar generated from Hexatar.com</text></svg>