<svg width="512" height="512" id="hexatar-preview" version="1.1" xmlns="http://www.w3.org/2000/svg" xmlns:xlink="http://www.w3.org/1999/xlink" x="0px" y="0px" viewBox="0 0 512 512" style="enable-background:new 0 0 512 512;" xml:space="preserve">
    <g id="hexatar-background"><g class="hexatar-base">
		<rect class="col-obj" x="-0.004" y="0.003" style="fill: rgb(255, 255, 255);" width="512" height="512"></rect>
	</g></g>
	<g id="hexatar-hair-rear"></g>
	<g id="hexatar-bodies" transform="matrix(1.12,0,0,1.12,-30.7568,-50.7291)">
		<g id="hexatar-body">
			<polygon class="col-obj" style="fill:#FCE2E1;" points="380.515,465 301,451 301,334 211,334 211,451 131.636,465 94.115,512   418.035,512 "></polygon>
			<polygon class="shadow-obj" style="fill: rgb(247, 181, 179);" points="380.541,465 301,451 301,334 256,334 256,512 418.062,512 "></polygon>
			<polygon id="hexatar-neck-control" class="shadow-obj-2x" style="opacity: 0.5; fill: rgb(242, 136, 133);" points="301.054,387.482 255.998,427.693 210.942,384.615  210.942,333.485 301.054,333.485 "></polygon>
		</g>
		<g id="hexatar-clothes"><g class="hexatar-base">
		<polygon class="static-obj" style="fill:#CCCCCC;" points="383.147,464.994 315.28,435.317 256.02,449.035 196.75,435.317  129.466,464.994 92.159,511.994 420.454,511.994"></polygon>
		<polygon class="col-obj" style="fill: rgb(1, 202, 206);" points="271.123,511.994 261.805,473.204 268.504,464.719 255.998,448.879  243.493,464.719 250.192,473.204 240.874,511.994"></polygon>
		<path class="static-obj" style="fill:#666666;" d="M129.466,464.994l-37.307,47h162.096l-57.505-76.678L129.466,464.994z M383.147,464.994l-67.318-29.678l-57.505,76.678h162.131L383.147,464.994z"></path>
		<path class="static-obj" style="opacity:0.3;fill:#494949;" d="M92.159,511.994L140.836,512l-11.37-47.006L92.159,511.994z M383.147,464.994L372.426,512l48.028-0.006L383.147,464.994z"></path>
		<polygon class="white-obj" style="fill:#FFFFFF;" points="229.079,484.336 256.02,449.035 284.359,484.336 315.28,435.317  301.023,411.456 301.023,425.901 256.019,449.001 210.971,425.697 211.014,411.456 196.75,435.317"></polygon>
	</g></g>
	</g>
	<g id="hexatar-faces">
		<g id="hexatar-ears"><g class="hexatar-base">
		<g class="hexatar-ears-right"> 	<polygon class="col-obj" style="fill:#FCE2E1;" points="172.062,168.76 172.062,238.392 127.687,238.392 109.255,203.576  127.687,168.76"></polygon> 	<polygon class="shadow-obj" style="fill: rgb(247, 181, 179);" points="137.955,219.998 129.261,203.576 137.955,187.154 172.062,187.154  172.062,219.998"></polygon>
		</g>
		<g class="hexatar-ears-left"> 	<polygon class="shadow-obj" style="fill: rgb(247, 181, 179);" points="340.163,238.392 340.163,168.76 382.976,168.76 401.408,203.576  382.976,238.392"></polygon> 	<polygon class="shadow-obj-2x" style="fill: rgb(242, 136, 133);" points="372.708,187.154 381.402,203.576 372.708,219.998  340.163,219.998 340.163,187.154"></polygon>
		</g>
	</g></g>
		<g id="hexatar-face"><g class="hexatar-base">
		<polygon class="col-obj" style="fill:#FCE2E1;" points="256.005,7.17 153.605,71.355 153.605,352.105 216.444,386.05  296.385,386.05 358.404,352.105 358.404,71.355"></polygon>
		<polygon class="shadow-obj" style="fill: rgb(247, 181, 179);" points="256.006,7.17 256.005,386.05 296.385,386.05 358.404,352.105  358.405,71.355"></polygon>
	</g></g>
		<g id="hexatar-mouth" transform="matrix(0.8333,0,0,0.8333,42.7231,42.9503)"></g>
		<g id="hexatar-beard" transform="matrix(1,0,0,1,0,6)"><g class="hexatar-base">
		<path class="col-obj has-mustache" style="fill: rgb(66, 66, 66);" d="M358.613,227.765h-18.924v73.6l-55.127-28.27h-54.954 l-57.071,30.394v-75.724h-18.924v123.917l72.889,60.344h61.166l70.936-60.344h-0.001L358.613,227.765z M294.961,344.784h-79.622 v-38.88l13.543-18.859h52.536l13.543,18.859V344.784z"></path>
		<polygon class="shadow-obj" style="opacity: 0.4; fill: rgb(40, 40, 40);" points="358.613,227.765 339.689,227.765 339.689,301.365 284.562,273.095  256.093,273.095 256.093,287.045 281.419,287.045 294.961,305.904 294.961,344.784 256.093,344.784 256.093,412.026  287.667,412.026 358.604,351.682 358.603,351.682"></polygon>
	</g></g>
		<g id="hexatar-mustache"></g>
		<g id="hexatar-nose" transform="matrix(1,0,0,1,0,17)"></g>
		<g id="hexatar-eyeGroup">
			<g id="hexatar-eye" transform="matrix(1,0,0,1,0,8)"></g>
			<g id="hexatar-eyebrows" transform="matrix(1,0,0,1,0,-7)"></g>	
		</g>
		<g id="hexatar-hair-front"><g class="element-front">
			<path class="col-obj" style="fill: rgb(66, 66, 66);" d="M153.602,175.3h18.913l0-115.824l-18.913,11.881L153.602,175.3z M339.489,59.427 l0,115.872h18.913l0-103.943L339.489,59.427z M222.303,28.2h67.677l-33.77-21.299L222.303,28.2z"></path>
			<path class="shadow-obj" style="opacity: 0.4; fill: rgb(40, 40, 40);" d="M339.489,59.427l0,115.872h18.913l0-103.943L339.489,59.427z M256.211,28.2 h33.77l-33.77-21.299V28.2z"></path>
		</g></g>
		<g id="hexatar-hat"></g>
		<g id="hexatar-eyeglasses" transform="matrix(1.1733,0,0,1.1733,-44.3778,-12.2258)"><g class="hexatar-base">
		<g class="hexatar-eyeglasses-right">
			<path class="col-obj" style="fill: rgb(33, 33, 33);" d="M255.992,181.007c-8.63,0.253-18.41-2.23-25.259-7.487 c-5.102-3.916-12.015-6.344-20.75-6.344c-12.089,0-20.735,4.39-25.891,11.207h-5.194c-2.532,0-4.585,2.053-4.585,4.585v7.038 c-0.339,0.047-0.682,0.081-1.032,0.081c-0.583,2.007-0.583,3.114,0,5.12h4.326c0.818,0,0.803,0.816,0.803,1.228 c0,16.159,11.828,31.301,31.572,31.301c20.399,0,31.572-15.142,31.572-31.301c0-0.026,0-0.052,0-0.078 c-0.012-4.771,4.555-8.886,9.274-9.591c2.986-0.446,5.165-0.485,5.165-0.485v-5.273 C255.995,181.007,255.994,181.007,255.992,181.007z M209.983,223.263c-16.726,0-26.745-13.139-26.745-26.828 s9.031-24.786,26.745-24.786c17.878,0,26.745,12.003,26.745,24.786C236.729,210.124,227.264,223.263,209.983,223.263z"></path>
		</g>
		<g class="hexatar-eyeglasses-left">
			<path class="col-obj" style="fill: rgb(33, 33, 33);" d="M338.771,190.087c-0.33,0-0.652-0.034-0.972-0.076v-7.043 c0-2.532-2.053-4.585-4.585-4.585h-5.254c-5.156-6.817-13.801-11.207-25.891-11.207c-8.722,0-15.627,2.42-20.726,6.326 c-6.87,5.261-16.654,7.801-25.302,7.507c-0.031-0.001-0.046-0.001-0.046-0.001v5.273c0,0,2.207,0.039,5.22,0.489 c4.722,0.704,9.293,4.818,9.282,9.592c0,0.025,0,0.049,0,0.074c0,16.159,11.173,31.301,31.572,31.301 c19.745,0,31.572-15.142,31.572-31.301c0,0,0.47-1.228,1.78-1.228c1.31,0,3.349,0,3.349,0 C339.354,193.201,339.354,192.093,338.771,190.087z M302.069,223.263c-17.281,0-26.745-13.139-26.745-26.828 c0-12.783,8.867-24.786,26.745-24.786c17.715,0,26.745,11.097,26.745,24.786S318.795,223.263,302.069,223.263z"></path>
			<path class="shadow-obj" style="opacity: 0.4; fill: rgb(7, 7, 7);" d="M338.771,190.087c-0.33,0-0.652-0.034-0.972-0.076v-7.043 c0-2.532-2.053-4.585-4.585-4.585h-5.254c-5.156-6.817-13.801-11.207-25.891-11.207c-8.722,0-15.627,2.42-20.726,6.326 c-6.87,5.261-16.654,7.801-25.302,7.507c-0.031-0.001-0.046-0.001-0.046-0.001v5.273c0,0,2.207,0.039,5.22,0.489 c4.722,0.704,9.293,4.818,9.282,9.592c0,0.025,0,0.049,0,0.074c0,16.159,11.173,31.301,31.572,31.301 c19.745,0,31.572-15.142,31.572-31.301c0,0,0.47-1.228,1.78-1.228c1.31,0,3.349,0,3.349,0 C339.354,193.201,339.354,192.093,338.771,190.087z M302.069,223.263c-17.281,0-26.745-13.139-26.745-26.828 c0-12.783,8.867-24.786,26.745-24.786c17.715,0,26.745,11.097,26.745,24.786S318.795,223.263,302.069,223.263z"></path>
		</g>
	</g></g>
	</g>
	<desc>Avatar generated from Hexatar.com - created with Snap</desc><text transform="matrix(1 0 0 1 0 528)" font-size="12">Avatar generated from Hexatar.com</text></svg>