<svg width="512" height="512" id="hexatar-preview" version="1.1" xmlns="http://www.w3.org/2000/svg" xmlns:xlink="http://www.w3.org/1999/xlink" x="0px" y="0px" viewBox="0 0 512 512" style="enable-background:new 0 0 512 512;" xml:space="preserve">
    <g id="hexatar-background"><g class="hexatar-base">
		<rect class="col-obj" x="-0.004" y="0.003" style="fill: transparent;" width="512" height="512"></rect>
	</g></g>
	<g id="hexatar-hair-rear"></g>
	<g id="hexatar-bodies">
		<g id="hexatar-body">
			<polygon class="col-obj" style="fill:#FCE2E1;" points="380.515,465 301,451 301,334 211,334 211,451 131.636,465 94.115,512   418.035,512 "></polygon>
			<polygon class="shadow-obj" style="fill: rgb(247, 181, 179);" points="380.541,465 301,451 301,334 256,334 256,512 418.062,512 "></polygon>
			<polygon id="hexatar-neck-control" class="shadow-obj-2x" style="opacity: 0.5; fill: rgb(242, 136, 133);" points="301.054,387.482 255.998,427.693 210.942,384.615  210.942,333.485 301.054,333.485 "></polygon>
		</g>
		<g id="hexatar-clothes"><g class="hexatar-base">
		<polygon class="col-obj" style="fill: rgb(204, 204, 204);" points="382.755,464.994 315.28,435.317 256.02,449.035 196.75,435.317  129.243,464.994 92.159,511.994 419.839,511.994"></polygon>
		<path class="shadow-obj" style="opacity: 0.4; fill: rgb(179, 179, 179);" d="M92.159,511.994L140.836,512l-11.37-47.006L92.159,511.994z M383.147,464.994L372.426,512l48.028-0.006L383.147,464.994z"></path>
		<polygon class="static-obj" style="fill:#EC373D;" points="271.123,511.994 261.805,473.204 268.504,464.719 255.998,448.879  243.493,464.719 250.192,473.204 240.874,511.994"></polygon>
		<polygon class="white-obj" style="fill:#FFFFFF;" points="229.079,484.336 256.02,449.035 284.359,484.336 315.28,435.317  301.023,411.456 301.023,425.901 256.019,449.001 210.971,425.697 211.014,411.456 196.75,435.317"></polygon>
	</g></g>
	</g>
	<g id="hexatar-faces">
		<g id="hexatar-ears"><g class="hexatar-base">
		<g class="hexatar-ears-right"> 	<polygon class="col-obj" style="fill:#FCE2E1;" points="172.062,168.76 172.062,238.392 127.687,238.392 109.255,203.576  127.687,168.76"></polygon> 	<polygon class="shadow-obj" style="fill: rgb(247, 181, 179);" points="137.955,219.998 129.261,203.576 137.955,187.154 172.062,187.154  172.062,219.998"></polygon>
		</g>
		<g class="hexatar-ears-left"> 	<polygon class="shadow-obj" style="fill: rgb(247, 181, 179);" points="340.163,238.392 340.163,168.76 382.976,168.76 401.408,203.576  382.976,238.392"></polygon> 	<polygon class="shadow-obj-2x" style="fill: rgb(242, 136, 133);" points="372.708,187.154 381.402,203.576 372.708,219.998  340.163,219.998 340.163,187.154"></polygon>
		</g>
	</g></g>
		<g id="hexatar-face"><g class="hexatar-base">
		<polygon class="col-obj" style="fill:#FCE2E1;" points="256.005,7.17 153.605,71.355 153.605,291.893 216.444,386.05  248.348,386.05 296.385,386.05 358.404,291.893 358.404,71.355"></polygon>
		<polygon class="shadow-obj" style="fill: rgb(247, 181, 179);" points="256.006,7.17 256.005,386.05 264.637,386.05 296.385,386.05  358.404,291.893 358.405,71.355"></polygon>
	</g></g>
		<g id="hexatar-mouth"></g>
		<g id="hexatar-beard"></g>
		<g id="hexatar-mustache"></g>
		<g id="hexatar-nose"></g>
		<g id="hexatar-eyeGroup">
			<g id="hexatar-eye"></g>
			<g id="hexatar-eyebrows"></g>	
		</g>
		<g id="hexatar-hair-front"><g class="element-front">
			<polygon class="col-obj" style="fill: rgb(66, 66, 66);" points="256.211,6.901 153.602,71.356 153.602,206.482 172.515,206.482  172.515,77.392 208.169,56.001 256.356,98.251 309.308,56.001 339.588,77.392 339.49,206.482 358.402,206.482 358.403,71.356"></polygon>
			<polygon class="shadow-obj" style="opacity: 0.4; fill: rgb(40, 40, 40);" points="256.211,6.901 256.211,97.137 256.356,98.251 309.308,56.001  339.588,77.392 339.49,206.482 358.402,206.482 358.403,71.356"></polygon>
		</g></g>
		<g id="hexatar-hat"></g>
		<g id="hexatar-eyeglasses"><g class="hexatar-base">
		<g class="hexatar-eyeglasses-right">
			<path class="static-obj" style="opacity:0.4;fill:#FFFFFF;" d="M227.86,226.17c-10.629,7.614-37.446,7.025-45.061-6.757 c-6.91-12.507-8.436-32.671,0-37.637c8.436-4.966,51.14-8.364,56.976,3.403C244.432,194.569,238.489,218.557,227.86,226.17z"></path>
			<path class="static-obj" style="opacity:0.8;fill:#FFFFFF;" d="M227.86,220.17c-10.629,7.614-37.446,7.025-45.061-6.757 c-3.141-5.685-5.164-12.949-5.65-19.651c-0.667,8.05,1.537,18.206,5.65,25.651c7.614,13.782,34.432,14.371,45.061,6.757 c8.856-6.344,14.454-24.049,13.382-35.212C240.37,201.672,235.249,214.877,227.86,220.17z"></path>
			<path class="col-obj" style="fill: rgb(33, 33, 33);" d="M243.116,178.566c-12.361-10.328-56.127-6.469-65.37-1.028 c-3.049,1.795-4.972,5.243-5.966,9.59l-5.972,1.148c-1.742,1.263-1.648,8.047,0.002,11.294l5.489,1.234 c0.815,7.41,3.114,15.241,6.461,21.558c9.146,17.261,41.007,17.115,53.666,8.048c7.048-5.048,12.334-16.142,14.707-26.914 c3.57-10.114,9.868-8.93,9.868-8.93v-10.451C252.682,184.115,248.685,181.831,243.116,178.566z M227.86,226.17 c-10.629,7.614-37.446,7.025-45.061-6.757c-6.91-12.507-8.436-32.671,0-37.637c8.436-4.966,51.14-8.364,56.976,3.403 C244.432,194.569,238.489,218.557,227.86,226.17z"></path>
		</g>
		<g class="hexatar-eyeglasses-left">
			<path class="static-obj" style="opacity:0.4;fill:#FFFFFF;" d="M329.159,219.386c-7.601,13.758-34.372,14.346-44.982,6.746 c-10.611-7.6-16.544-31.547-11.895-40.92c5.826-11.746,48.456-8.355,56.878-3.397 C337.58,186.772,336.057,206.901,329.159,219.386z"></path>
			<path class="static-obj" style="opacity:0.8;fill:#FFFFFF;" d="M329.159,213.386c-7.601,13.758-34.372,14.346-44.982,6.746 c-7.376-5.283-12.486-18.461-13.359-29.156c-1.071,11.143,4.517,28.822,13.359,35.156c10.611,7.6,37.381,7.012,44.982-6.746 c4.107-7.433,6.307-17.574,5.64-25.61C334.312,200.465,332.293,207.713,329.159,213.386z"></path>
			<path class="col-obj" style="fill: rgb(33, 33, 33);" d="M346.192,188.276l-5.976-1.148c-0.994-4.347-2.924-7.795-5.973-9.59 c-9.274-5.459-53.351-9.326-65.539,1.134c-5.398,3.209-9.386,5.442-12.704,5.442v10.451c0,0,6.219-1.148,9.724,8.525 c2.327,10.898,7.703,22.207,14.84,27.319c12.659,9.067,44.527,9.214,53.672-8.048c3.347-6.317,5.649-14.148,6.464-21.558 l5.49-1.234C347.84,196.323,347.934,189.539,346.192,188.276z M329.159,219.386c-7.601,13.758-34.372,14.346-44.982,6.746 c-10.611-7.6-16.544-31.547-11.895-40.92c5.826-11.746,48.456-8.355,56.878-3.397 C337.58,186.772,336.057,206.901,329.159,219.386z"></path>
			<path class="shadow-obj" style="fill: rgb(7, 7, 7);" d="M346.192,188.276l-5.976-1.148c-0.994-4.347-2.924-7.795-5.973-9.59 c-9.274-5.459-53.351-9.326-65.539,1.134c-5.398,3.209-9.386,5.442-12.704,5.442v10.451c0,0,6.219-1.148,9.724,8.525 c2.327,10.898,7.703,22.207,14.84,27.319c12.659,9.067,44.527,9.214,53.672-8.048c3.347-6.317,5.649-14.148,6.464-21.558 l5.49-1.234C347.84,196.323,347.934,189.539,346.192,188.276z M329.159,219.386c-7.601,13.758-34.372,14.346-44.982,6.746 c-10.611-7.6-16.544-31.547-11.895-40.92c5.826-11.746,48.456-8.355,56.878-3.397 C337.58,186.772,336.057,206.901,329.159,219.386z"></path>
		</g>
	</g></g>
	</g>
	<desc>Avatar generated from Hexatar.com - created with Snap</desc><text transform="matrix(1 0 0 1 0 528)" font-size="12">Avatar generated from Hexatar.com</text></svg>