<svg width="512" height="512" id="hexatar-preview" version="1.1" xmlns="http://www.w3.org/2000/svg" xmlns:xlink="http://www.w3.org/1999/xlink" x="0px" y="0px" viewBox="0 0 512 512" style="enable-background:new 0 0 512 512;" xml:space="preserve">
    <g id="hexatar-background"><g class="hexatar-base">
		<rect class="col-obj" x="-0.004" y="0.003" style="fill: rgb(146, 138, 206);" width="512" height="512"></rect>
	</g></g>
	<g id="hexatar-hair-rear"></g>
	<g id="hexatar-bodies">
		<g id="hexatar-body">
			<polygon class="col-obj" style="fill: rgb(160, 109, 60);" points="380.515,465 301,451 301,334 211,334 211,451 131.636,465 94.115,512   418.035,512 "></polygon>
			<polygon class="shadow-obj" style="fill: rgb(123, 84, 46);" points="380.541,465 301,451 301,334 256,334 256,512 418.062,512 "></polygon>
			<polygon id="hexatar-neck-control" class="shadow-obj-2x" style="opacity: 0.5; fill: rgb(86, 59, 32);" points="301.054,387.482 255.998,427.693 210.942,384.615  210.942,333.485 301.054,333.485 "></polygon>
		</g>
		<g id="hexatar-clothes"><g class="hexatar-base">
		<path class="shadow-obj-2x" style="fill: rgb(0, 0, 0);" d="M346.448,403.978h-44.967l-0.458,7.478l12.481,31.903h47.454v-24.872 C360.957,410.474,354.461,403.978,346.448,403.978z M151.031,418.935v24.424h47.459l12.481-31.903v-7.478l-44.985,0.001 C157.727,403.979,151.031,410.675,151.031,418.935z"></path>
		<polygon class="static-obj" style="fill:#CCCCCC;" points="315.28,435.317 256.02,449.035 196.75,435.317 195.746,511.994  316.867,511.994"></polygon>
		<polygon class="static-obj" style="fill:#EC373D;" points="271.123,511.994 261.805,473.204 268.504,464.719 255.998,448.879  243.493,464.719 250.192,473.204 240.874,511.994"></polygon>
		<path class="static-obj" style="fill:#666666;" d="M129.466,462.994l-37.307,49h162.096l-57.505-76.678L129.466,462.994z M383.147,464.994l-67.866-29.678l-56.957,76.678h162.131L383.147,464.994z"></path>
		<path class="static-obj" style="opacity:0.3;fill:#494949;" d="M75.159,511.994L123.836,512l-11.37-47.006L75.159,511.994z M383.147,464.994L372.426,512l48.028-0.006L383.147,464.994z"></path>
		<polygon class="white-obj" style="fill:#FFFFFF;" points="229.079,484.336 256.02,449.035 284.359,484.336 315.28,435.317  301.023,411.456 301.023,425.901 256.019,449.001 210.971,425.697 211.014,411.456 196.75,435.317"></polygon>
		<path class="col-obj" style="fill: rgb(34, 34, 34);" d="M147.403,455.083l-35.16,9.912l-37.084,47h131.175v-41.747 c0-30.157-25.145-52.086-55.302-52.086L151,432.343L147.403,455.083z M399.755,464.994l-35.376-9.595L361,432.343l0-14.182 c-30.157,0-54.605,21.929-54.605,52.086v41.747h130.444L399.755,464.994z"></path>
	</g></g>
	</g>
	<g id="hexatar-faces">
		<g id="hexatar-ears"><g class="hexatar-base">
		<g class="hexatar-ears-right"> 	<polygon class="col-obj" style="fill: rgb(160, 109, 60);" points="172.062,168.76 172.062,238.392 127.687,238.392 109.255,203.576  127.687,168.76"></polygon> 	<polygon class="shadow-obj" style="fill: rgb(123, 84, 46);" points="137.955,219.998 129.261,203.576 137.955,187.154 172.062,187.154  172.062,219.998"></polygon>
		</g>
		<g class="hexatar-ears-left"> 	<polygon class="shadow-obj" style="fill: rgb(123, 84, 46);" points="340.163,238.392 340.163,168.76 382.976,168.76 401.408,203.576  382.976,238.392"></polygon> 	<polygon class="shadow-obj-2x" style="fill: rgb(86, 59, 32);" points="372.708,187.154 381.402,203.576 372.708,219.998  340.163,219.998 340.163,187.154"></polygon>
		</g>
	</g></g>
		<g id="hexatar-face"><g class="hexatar-base">
		<polygon class="col-obj" style="fill: rgb(160, 109, 60);" points="256.005,7.17 153.605,71.355 153.605,291.893 216.444,386.05  248.348,386.05 296.385,386.05 358.404,291.893 358.404,71.355"></polygon>
		<polygon class="shadow-obj" style="fill: rgb(123, 84, 46);" points="256.006,7.17 256.005,386.05 264.637,386.05 296.385,386.05  358.404,291.893 358.405,71.355"></polygon>
	</g></g>
		<g id="hexatar-mouth"></g>
		<g id="hexatar-beard"></g>
		<g id="hexatar-mustache"></g>
		<g id="hexatar-nose"></g>
		<g id="hexatar-eyeGroup">
			<g id="hexatar-eye"></g>
			<g id="hexatar-eyebrows"></g>	
		</g>
		<g id="hexatar-hair-front"><g class="element-front">
			<path class="col-obj" style="fill: rgb(66, 66, 66);" d="M256.211,6.901L153.602,71.356l0,103.943h18.913V72.492l54.433,62.49 l31.789-17.446c36.335-19.941,80.753,6.35,80.753,47.797v9.966h18.913l0-103.943L256.211,6.901z"></path>
			<path class="shadow-obj" style="opacity: 0.4; fill: rgb(40, 40, 40);" d="M256.211,6.901v111.95l2.558-1.402c36.334-19.909,80.721,6.383,80.721,47.815 V175.3h18.913l0-103.943L256.211,6.901z"></path>
		</g></g>
		<g id="hexatar-hat"></g>
		<g id="hexatar-eyeglasses"></g>
	</g>
	<desc>Avatar generated from Hexatar.com - created with Snap</desc><text transform="matrix(1 0 0 1 0 528)" font-size="12">Avatar generated from Hexatar.com</text></svg>