<svg width="512" height="512" id="hexatar-preview" version="1.1" xmlns="http://www.w3.org/2000/svg" xmlns:xlink="http://www.w3.org/1999/xlink" x="0px" y="0px" viewBox="0 0 512 512" style="enable-background:new 0 0 512 512;" xml:space="preserve">
    <g id="hexatar-background"><g class="hexatar-base">
		<rect class="col-obj" x="-0.004" y="0.003" style="fill: transparent;" width="512" height="512"></rect>
	</g></g>
	<g id="hexatar-hair-rear"><g class="element-rear">
			<path class="col-obj" style="fill: rgb(66, 66, 66);" d="M368.093,181.404H145.092c11.355,48.006-24.584,114.386-50.974,138.491 c34.218,56.794,155.817,66.158,155.817,66.158c0.999,0,134.906-9.352,169.132-66.158 C392.677,295.79,356.738,229.41,368.093,181.404z"></path>
			<path class="shadow-obj" style="opacity: 0.4; fill: rgb(40, 40, 40);" d="M368.093,181.404H254.995v204.238c24.805-2.294,133.695-15.329,164.072-65.747 C392.677,295.79,356.738,229.41,368.093,181.404z"></path>
			<g class="hair-ext" style="display: block;">
			</g>
		</g></g>
	<g id="hexatar-bodies">
		<g id="hexatar-body">
			<polygon class="col-obj" style="fill: rgb(221, 161, 105);" points="380.515,465 301,451 301,334 211,334 211,451 131.636,465 94.115,512   418.035,512 "></polygon>
			<polygon class="shadow-obj" style="fill: rgb(212, 135, 63);" points="380.541,465 301,451 301,334 256,334 256,512 418.062,512 "></polygon>
			<polygon id="hexatar-neck-control" class="shadow-obj-2x" style="opacity: 0.5; fill: rgb(183, 110, 41);" points="301.054,387.482 255.998,427.693 210.942,384.615  210.942,333.485 301.054,333.485 "></polygon>
		</g>
		<g id="hexatar-clothes"><g class="hexatar-base">
		<polygon class="col-obj" style="fill: rgb(247, 147, 30);" points="382.805,464.994 329.298,446.821 329.298,403.669 256.039,433.515  182.739,403.669 182.739,446.821 129.243,464.994 92.159,511.994 419.839,511.994"></polygon>
		<path class="shadow-obj" style="opacity: 0.4; fill: rgb(218, 121, 8);" d="M92.159,511.994h45.42l-8.336-47L92.159,511.994z M382.805,464.994 l-8.285,47h45.318L382.805,464.994z"></path>
		<path class="shadow-obj" style="fill: rgb(218, 121, 8);" d="M210.924,415.145v-11.476h-28.184L210.924,415.145z M301.054,403.669v11.507 l28.244-11.507H301.054z"></path>
		<path class="white-obj" style="fill:#FFFFFF;" d="M247.377,492.237c-2.686,0-4.868,2.184-4.868,4.863 c0,2.688,2.182,4.863,4.868,4.863c2.686,0,4.863-2.175,4.863-4.863C252.241,494.421,250.063,492.237,247.377,492.237z M256.837,460.607l-30.603,15.465v35.922h9.781V482.09l20.822-10.523l20.823,10.523v29.905h9.781v-35.922L256.837,460.607z M266.299,492.237c-2.685,0-4.862,2.184-4.862,4.863c0,2.688,2.177,4.863,4.862,4.863c2.689,0,4.868-2.175,4.868-4.863 C271.167,494.421,268.988,492.237,266.299,492.237z"></path>
	</g></g>
	</g>
	<g id="hexatar-faces">
		<g id="hexatar-ears"><g class="hexatar-base">
		<g class="hexatar-ears-right"> 	<polygon class="col-obj" style="fill: rgb(221, 161, 105);" points="172.062,168.76 172.062,238.392 127.687,238.392 109.255,203.576  127.687,168.76"></polygon> 	<polygon class="shadow-obj" style="fill: rgb(212, 135, 63);" points="137.955,219.998 129.261,203.576 137.955,187.154 172.062,187.154  172.062,219.998"></polygon>
		</g>
		<g class="hexatar-ears-left"> 	<polygon class="shadow-obj" style="fill: rgb(212, 135, 63);" points="340.163,238.392 340.163,168.76 382.976,168.76 401.408,203.576  382.976,238.392"></polygon> 	<polygon class="shadow-obj-2x" style="fill: rgb(183, 110, 41);" points="372.708,187.154 381.402,203.576 372.708,219.998  340.163,219.998 340.163,187.154"></polygon>
		</g>
	</g></g>
		<g id="hexatar-face"><g class="hexatar-base">
		<path class="col-obj" style="fill: rgb(221, 161, 105);" d="M255.986,7.171l-102.4,64.185l0,185.388c0,5.536,1.952,10.894,5.512,15.133 l1.497,1.783c3.073,3.658,4.969,8.159,5.441,12.913l2.426,24.448c1.155,11.642,7.378,22.185,17.013,28.822l27.57,18.992 l2.28,6.394c4.454,12.486,16.278,20.823,29.534,20.823h22.4c13.583,0,25.622-8.745,29.821-21.663l1.849-5.687l27.652-19.148 c9.584-6.637,15.773-17.145,16.931-28.745l2.419-24.243c0.474-4.749,2.37-9.245,5.439-12.9l1.502-1.788 c3.56-4.239,5.512-9.598,5.512-15.133l0-185.388L255.986,7.171z"></path>
		<path class="shadow-obj" style="fill: rgb(212, 135, 63);" d="M255.986,7.171l-0.001,378.88h11.274c13.583,0,25.622-8.745,29.821-21.663 l1.849-5.687l27.653-19.148c9.584-6.637,15.774-17.145,16.931-28.745l2.419-24.243c0.474-4.749,2.37-9.245,5.44-12.9l1.502-1.788 c3.56-4.239,5.512-9.598,5.512-15.133l0-185.388L255.986,7.171z"></path>
	</g></g>
		<g id="hexatar-mouth"></g>
		<g id="hexatar-beard"></g>
		<g id="hexatar-mustache"></g>
		<g id="hexatar-nose"></g>
		<g id="hexatar-eyeGroup">
			<g id="hexatar-eye"></g>
			<g id="hexatar-eyebrows"></g>	
		</g>
		<g id="hexatar-hair-front"><g class="element-front">
			<path class="col-obj" style="fill: rgb(66, 66, 66);" d="M256.214,6.901L153.605,71.357l0,97.612c0,0,9.157-51.422,30.62-78.038 c29.67,59.521,76.309,87.83,174.18,77.061l0-96.635L256.214,6.901z"></path>
			<path class="shadow-obj" style="opacity: 0.4; fill: rgb(40, 40, 40);" d="M256.214,6.901v153.335c26.12,9.675,59.215,12.484,102.192,7.755l0-96.635 L256.214,6.901z"></path>
			<g class="hair-ext" style="display: block;">
				<path class="col-obj" style="fill: rgb(66, 66, 66);" d="M153.587,183.917c0-84.233,44.372-152.841,101.436-152.841 c57.064,0,103.323,68.284,103.323,152.518c0,15.965-1.665,31.354-4.747,45.817c0,0,14.737-27.427,14.737-115.645 c0-78.094-45.675-109.67-113.313-109.67S141.71,35.672,141.71,113.766c0,92.832,14.737,115.644,14.737,115.644 C153.365,214.948,153.587,199.882,153.587,183.917z"></path>
				<path class="shadow-obj" style="opacity: 0.4; fill: rgb(40, 40, 40);" d="M368.337,113.766c0-77.595-45.097-109.259-112.023-109.661V31.1 c56.468,1.022,102.033,68.897,102.033,152.493c0,15.965-1.665,31.354-4.747,45.817 C353.6,229.41,368.337,201.983,368.337,113.766z"></path>
				<path class="white-obj" style="fill:#FFFFFF;" d="M258.036,15.889c-56.261,0-101.869,45.608-101.869,101.869 c0,3.678,0.2,7.31,0.58,10.887c5.434-51.141,48.707-90.982,101.289-90.982s95.855,39.841,101.289,90.982 c0.38-3.578,0.58-7.209,0.58-10.887C359.905,61.497,314.297,15.889,258.036,15.889z"></path>
			</g>
		</g></g>
		<g id="hexatar-hat"></g>
		<g id="hexatar-eyeglasses"></g>
	</g>
	<desc>Avatar generated from Hexatar.com - created with Snap</desc><text transform="matrix(1 0 0 1 0 528)" font-size="12">Avatar generated from Hexatar.com</text></svg>